<svg width="268" height="108" viewBox="0 0 268 108" fill="none" xmlns="http://www.w3.org/2000/svg">
<g filter="url(#filter0_d_6_10)">
<path d="M106.695 37.1145L113.036 55.7196L107.959 57.4501L102.918 42.6614L96.1714 44.9609L101.212 59.7496L96.1345 61.48L89.7934 42.8749L106.695 37.1145Z" fill="black"/>
</g>
<g filter="url(#filter1_d_6_10)">
<path d="M123.945 31.2775C126.106 30.8216 128.034 31.2979 129.729 32.7062C131.419 34.091 132.609 36.4155 133.298 39.6797C133.758 41.8636 133.83 43.7739 133.513 45.4106C133.192 47.0238 132.558 48.3225 131.613 49.3069C130.668 50.2912 129.467 50.937 128.011 51.2442C127.095 51.4375 126.272 51.4885 125.542 51.3974C124.835 51.3013 124.207 51.1149 123.658 50.8383C123.109 50.5617 122.614 50.2492 122.172 49.9008L121.89 49.9603C122.078 50.3866 122.248 50.8414 122.399 51.3247C122.545 51.7844 122.668 52.2491 122.767 52.7188L124.402 60.4681L119.153 61.5756L113.311 33.8892L117.574 32.9899L118.841 35.3347L119.088 35.2827C119.331 34.6917 119.654 34.1329 120.058 33.6061C120.457 33.0559 120.97 32.5798 121.597 32.1778C122.247 31.7708 123.03 31.4707 123.945 31.2775ZM123.139 35.8259C122.223 36.0192 121.535 36.3607 121.074 36.8503C120.613 37.34 120.335 37.9996 120.241 38.829C120.164 39.63 120.236 40.6084 120.455 41.764L120.574 42.3276C120.837 43.5722 121.177 44.6041 121.595 45.4234C122.009 46.2193 122.544 46.7808 123.202 47.1081C123.859 47.4353 124.67 47.4974 125.633 47.2942C126.431 47.1258 127.041 46.7639 127.464 46.2087C127.886 45.6536 128.135 44.9143 128.21 43.9909C128.285 43.0675 128.191 41.9835 127.929 40.739C127.532 38.8603 126.941 37.5133 126.156 36.6978C125.389 35.854 124.384 35.5633 123.139 35.8259Z" fill="black"/>
</g>
<g filter="url(#filter2_d_6_10)">
<path d="M155.774 35.8659C155.958 37.4875 155.895 38.956 155.585 40.2712C155.299 41.5838 154.789 42.7286 154.054 43.7056C153.341 44.656 152.425 45.424 151.308 46.0096C150.188 46.5713 148.889 46.936 147.411 47.1036C146.051 47.2578 144.763 47.1864 143.546 46.8897C142.35 46.5664 141.286 46.0228 140.354 45.2589C139.419 44.4712 138.642 43.4724 138.021 42.2626C137.425 41.0501 137.035 39.633 136.851 38.0114C136.605 35.8413 136.78 33.9737 137.375 32.4087C137.968 30.8198 138.935 29.5507 140.277 28.6015C141.618 27.6523 143.267 27.0669 145.222 26.8452C147.059 26.637 148.725 26.8466 150.221 27.4741C151.717 28.1015 152.956 29.1204 153.937 30.5309C154.915 31.9175 155.528 33.6958 155.774 35.8659ZM142.288 37.3949C142.434 38.6827 142.688 39.7528 143.051 40.6054C143.434 41.4315 143.95 42.0373 144.597 42.4228C145.242 42.7844 146.041 42.9112 146.995 42.803C147.949 42.6949 148.688 42.3937 149.212 41.8996C149.757 41.3789 150.111 40.6744 150.276 39.7862C150.463 38.8714 150.483 37.7701 150.337 36.4824C150.191 35.1946 149.926 34.1377 149.542 33.3117C149.183 32.4829 148.68 31.8877 148.036 31.5261C147.391 31.1644 146.591 31.0377 145.637 31.1458C144.23 31.3053 143.26 31.9105 142.727 32.9612C142.216 33.9854 142.069 35.4633 142.288 37.3949Z" fill="black"/>
</g>
<g filter="url(#filter3_d_6_10)">
<path d="M173.363 24.4021L179.264 24.2208L171.782 33.8871L180.552 43.8465L174.471 44.0333L166.14 34.3125L166.446 44.2798L161.085 44.4445L160.481 24.7978L165.843 24.6331L166.136 34.1686L173.363 24.4021Z" fill="black"/>
</g>
<g filter="url(#filter4_d_6_10)">
<path d="M192.495 23.4261C195.132 23.5457 197.12 24.2124 198.458 25.4263C199.822 26.6172 200.45 28.3875 200.344 30.7371L199.75 43.8277L196.01 43.6581L195.088 40.9495L194.944 40.943C194.361 41.6133 193.759 42.1626 193.139 42.591C192.543 43.0204 191.857 43.3137 191.081 43.4707C190.328 43.6528 189.4 43.7188 188.298 43.6688C187.147 43.6166 186.114 43.3536 185.198 42.8796C184.308 42.3828 183.619 41.6669 183.133 40.7319C182.648 39.773 182.438 38.5862 182.502 37.1717C182.596 35.0858 183.397 33.5845 184.904 32.6678C186.412 31.7272 188.631 31.2752 191.561 31.3119L194.982 31.3589L195.021 30.4958C195.068 29.4649 194.826 28.6971 194.297 28.1926C193.791 27.6892 193.059 27.4158 192.1 27.3723C191.141 27.3288 190.199 27.4303 189.275 27.6767C188.352 27.8991 187.426 28.1934 186.496 28.5597L184.898 24.8476C185.978 24.3439 187.161 23.9651 188.446 23.711C189.754 23.4581 191.104 23.3631 192.495 23.4261ZM192.751 34.4651C191.023 34.4348 189.81 34.6921 189.112 35.2371C188.415 35.782 188.045 36.522 188.003 37.4571C187.966 38.2722 188.179 38.8705 188.642 39.2519C189.106 39.6093 189.722 39.8054 190.489 39.8401C191.64 39.8923 192.626 39.6007 193.448 38.9652C194.271 38.3058 194.71 37.3528 194.767 36.106L194.84 34.4877L192.751 34.4651Z" fill="black"/>
</g>
<g filter="url(#filter5_d_6_10)">
<path d="M222.992 29.8892L216.592 29.1309L214.754 44.6463L209.427 44.0151L211.266 28.4997L204.866 27.7413L205.341 23.7374L223.466 25.8852L222.992 29.8892Z" fill="black"/>
</g>
<g filter="url(#filter6_d_6_10)">
<path d="M207.831 48.8578C207.896 49.3393 208.301 51.0398 208.738 52.6349C209.224 54.3354 209.597 56.1262 209.694 56.999C209.791 58.0072 209.969 58.7597 210.261 59.4369C210.731 60.4752 210.86 61.7242 210.536 62.0252C210.439 62.1155 209.532 62.266 208.544 62.3412L206.73 62.4917L206.341 62.0553C205.337 60.9267 202.777 56.6529 201.854 54.5762L201.611 54.0194L202.243 53.6432C202.599 53.4325 202.89 53.1466 202.89 52.9961C202.89 52.6801 200.866 51.4912 199.391 50.9646C197.399 50.2272 196.686 50.182 188.797 50.1971C179.369 50.2272 173.149 50.5131 158.262 51.6267C149.19 52.2888 147.408 52.4845 145.951 52.8908C145.238 53.1014 143.877 53.3573 142.937 53.4777C141.172 53.7184 140.232 53.9893 137.64 55.0577C136.814 55.4039 135.065 56.0208 133.769 56.4422C130.011 57.6461 128.65 58.3534 125.297 60.8665C122.122 63.2441 119.4 66.0281 117.602 68.7519L117.019 69.6247L114.881 69.73C113.698 69.7752 110.782 69.8956 108.369 69.9708C103.071 70.1514 99.864 70.3621 97.5961 70.663C95.555 70.9339 95.4902 70.9489 95.4902 71.2499C95.4902 71.3854 95.2958 71.7917 95.069 72.1679C94.0971 73.7028 94.4211 77.8713 95.8952 82.5965C96.3002 83.8606 96.3002 84.1164 95.9114 84.1164C95.798 84.1164 95.5874 84.2368 95.4254 84.3873C95.1986 84.6431 95.1824 84.8086 95.3444 85.862C95.5064 86.9455 96.2678 90.4518 96.3488 90.5421C96.3812 90.5571 96.9319 90.6474 97.5961 90.7528C98.4385 90.8732 100.69 90.9033 104.886 90.8581L110.96 90.7829L111.463 92.1523C111.738 92.9047 112.143 93.913 112.386 94.3945L112.823 95.2824L111.819 95.1921C111.252 95.1469 108.433 95.0717 105.55 95.0115L100.301 94.9212L100.415 95.4028L100.512 95.8994L98.5357 95.794C94.8585 95.6134 81.6886 95.5382 75.4033 95.6586C69.3448 95.779 69.1666 95.794 69.118 96.0799C69.0208 96.5916 68.8265 96.6367 68.0165 96.3809C66.9635 96.0498 65.5866 96.0799 63.4807 96.4561C62.2496 96.6819 61.2615 96.7571 60.2571 96.727L58.7992 96.6819L58.7506 97.4644C58.6858 98.4275 58.7506 98.4425 60.5325 97.9008C61.6664 97.5547 61.9418 97.5246 64.6795 97.5697C66.7854 97.5998 67.6763 97.66 67.8545 97.8105C68.0651 97.961 69.2476 97.9911 73.265 97.976C76.0837 97.961 78.6755 97.9159 78.9995 97.8557C79.4045 97.7955 79.7123 97.8406 79.8905 97.976C80.0848 98.1416 80.6356 98.1717 82.1259 98.1416L84.086 98.0964L84.491 98.6683C84.9932 99.3906 85.2848 99.4357 85.9813 98.879C86.6455 98.3372 87.1153 98.2921 88.3626 98.6984C89.1078 98.9241 89.6261 98.9692 91.6834 98.9241C93.5949 98.879 94.1457 98.8188 94.2915 98.6532C94.4373 98.4576 94.9881 98.4425 98.3413 98.5629C100.463 98.6382 104.108 98.7134 106.425 98.7134H110.636L110.928 99.195L111.22 99.6615L114.006 99.5862L116.792 99.511V100.053C116.792 100.579 116.808 100.594 117.44 100.64C117.796 100.67 119.983 100.579 122.3 100.444C125.864 100.218 128.585 100.203 129.719 100.414C129.832 100.429 129.93 100.263 129.962 100.023C130.027 99.511 130.318 99.4959 132.133 99.9323C132.894 100.113 133.704 100.218 134.06 100.173C134.563 100.113 134.692 100.158 134.87 100.459L135.065 100.82H143.602C155.654 100.82 161.388 100.685 161.696 100.399C161.89 100.218 162.279 100.173 163.737 100.233C164.742 100.263 166.621 100.294 167.933 100.294H170.314L170.363 100.82C170.411 101.437 170.46 101.437 172.76 101.151C174.412 100.941 178.786 100.926 181.994 101.121C185.768 101.362 190.207 101.317 191.972 101.046C193.139 100.85 193.689 100.835 194.273 100.956C196.702 101.437 199.845 101.287 202 100.579C202.874 100.294 203.474 100.203 204.656 100.203C205.482 100.203 206.373 100.278 206.616 100.369C206.892 100.474 207.507 100.519 208.188 100.459C208.787 100.414 211.006 100.324 213.096 100.233C215.186 100.158 217.956 100.038 219.252 99.9775C221.05 99.9023 222.103 99.9323 223.739 100.128C225.845 100.384 225.909 100.384 227.157 100.083C228.631 99.7217 231.628 99.5411 239.743 99.3003C242.773 99.21 245.915 99.0896 246.709 99.0144C247.519 98.9391 249.301 98.8037 250.678 98.7134C252.055 98.6231 253.999 98.4726 255.003 98.3824C257.044 98.1867 260.819 98.3071 263.459 98.6231C265.241 98.8489 265.776 98.7736 265.97 98.3071C266.148 97.8707 265.516 97.5095 264.577 97.5095C264.139 97.5095 263.653 97.4493 263.491 97.3741C263.297 97.2688 262.973 97.2989 262.487 97.4644C261.677 97.7202 260.138 97.66 259.344 97.344L258.858 97.1484L259.344 97.0882C259.976 97.0129 260.235 96.8023 260.235 96.3659C260.235 95.8392 259.717 95.6586 258.47 95.7639C257.725 95.8241 257.206 95.794 256.753 95.6285C256.088 95.4178 251.634 95.2974 251.099 95.493C250.597 95.6736 250.84 95.8542 251.569 95.8542C251.974 95.8542 252.298 95.9144 252.298 96.0047C252.298 96.1702 251.455 96.2003 250.889 96.0649C250.71 96.0197 250.516 95.8542 250.467 95.6887C250.386 95.4178 250.208 95.4028 248.086 95.4028H245.802L246.11 94.9814C246.288 94.7557 246.725 94.0333 247.082 93.3712C247.438 92.7091 247.859 92.062 248.021 91.9266C248.232 91.746 248.783 91.6557 249.868 91.5955C250.71 91.5353 252.395 91.3246 253.594 91.0989C255.197 90.813 256.623 90.6775 258.939 90.5872C261.807 90.4819 262.892 90.3465 263.41 90.0154C263.589 89.9101 263.718 89.3834 263.896 87.9086C263.994 87.2314 264.075 87.0809 264.48 86.8853C265.322 86.479 265.435 85.561 264.658 85.3805C264.301 85.2902 263.022 85.3955 262.26 85.561C262.001 85.6212 261.888 85.5309 261.726 85.1246C261.467 84.4474 260.835 84.1615 259.069 83.9358L257.725 83.7402L258.745 83.6499C259.847 83.5445 260.333 83.3038 259.911 83.063C259.782 82.9877 258.875 82.9125 257.887 82.8975L256.105 82.8674L257.433 82.7169L258.745 82.5664L258.923 81.9193C259.02 81.5581 259.085 81.1819 259.069 81.0766C259.037 80.9712 259.328 80.8208 259.749 80.7305C260.284 80.595 260.495 80.4746 260.527 80.2489C260.608 79.7373 259.652 79.5266 257.433 79.5567C254.469 79.5868 254.501 79.5717 254.161 80.7305C254.015 81.2572 253.918 82.0246 253.95 82.446L253.999 83.1834L252.427 83.2887L250.84 83.3941V83.9659C250.84 84.5377 250.84 84.5377 251.65 84.6431C252.525 84.7484 253.691 84.628 253.853 84.4023C253.902 84.3271 254.096 84.3421 254.29 84.4474C254.517 84.5829 255.359 84.6431 256.704 84.6431C257.951 84.6431 258.826 84.7033 258.939 84.8086C259.247 85.0945 241.639 85.7416 229.878 85.8771L221.001 85.9673L221.374 85.3052C221.633 84.8387 221.762 84.297 221.811 83.4392C221.876 82.1902 221.633 80.58 221.325 80.4145C220.969 80.2038 220.791 80.7305 220.71 82.3256C220.645 83.5596 220.564 84.011 220.386 84.1164C219.802 84.4625 218.83 84.5979 216.239 84.6732L213.469 84.7635L213.371 84.4023C213.274 84.0712 213.258 84.0712 212.966 84.312C212.545 84.6732 211.654 84.8989 211.12 84.7785C210.731 84.7033 210.682 84.6431 210.763 84.3271C210.844 84.011 210.812 83.9659 210.455 83.9659C210.196 83.9659 209.953 83.8154 209.775 83.5746C209.516 83.1984 209.467 83.1834 208.463 83.2887C206.989 83.4242 200.12 83.2135 200.25 83.0178C200.315 82.9276 201.562 82.8975 203.684 82.9426C205.515 82.9877 207.556 82.9576 208.22 82.8975C209.597 82.747 211.087 82.3407 210.877 82.145C210.812 82.0848 210.277 82.0096 209.694 81.9795L208.641 81.9344L209.451 81.7538C209.905 81.6635 210.601 81.528 211.039 81.4829L211.8 81.3926V80.7455C211.8 80.1285 211.816 80.1135 212.254 80.1737C212.788 80.2339 213.258 79.8426 212.966 79.5717C212.756 79.3761 210.909 79.3912 209.451 79.6018C208.868 79.6921 206.47 79.7373 204.073 79.7222C201.157 79.7072 199.489 79.7523 199.003 79.8727C198.322 80.0382 198.258 80.0232 198.031 79.7222C197.124 78.4882 196.216 77.9014 194.921 77.7208C194.321 77.6305 194.143 77.5552 194.111 77.2994C194.078 77.0436 193.9 76.9533 193.333 76.848C192.604 76.7276 186.335 76.8179 184.472 76.9984C183.5 77.0737 183.484 77.0887 183.371 77.5853C183.209 78.398 182.642 78.9096 181.864 78.9096C181.07 78.9247 180.924 79.0751 179.596 81.3324L178.624 82.9877L171.772 83.1382L164.92 83.2887L164.709 83.6649C164.434 84.1766 164.709 84.4174 165.568 84.4174C166.199 84.4174 166.264 84.4474 166.313 84.8237C166.361 85.1848 166.459 85.2601 167.009 85.3504C167.366 85.4106 168.467 85.4557 169.472 85.4557C170.46 85.4707 171.383 85.5159 171.529 85.561C172.096 85.7567 171.626 87.4271 170.8 88.1343C170.589 88.3149 170.039 88.6159 169.601 88.8115C168.824 89.1426 168.581 89.1576 163.705 89.2329C160.384 89.278 158.602 89.263 158.57 89.1576C158.44 88.7212 158.003 78.9397 158.051 77.1941L158.1 75.1625L159.477 75.1324C160.238 75.1023 163.267 74.9819 166.199 74.8616C169.148 74.7412 172.792 74.6358 174.299 74.6358C182.075 74.6208 184.213 74.1091 185.379 71.9572C185.638 71.4606 186.043 70.8587 186.286 70.6028C186.756 70.0761 186.351 70.1213 193.738 69.73C198.808 69.4742 205.142 69.0077 208.123 68.6917C210.601 68.4208 210.779 68.4208 210.569 68.6164C210.488 68.6917 209.613 68.9024 208.641 69.0679C207.653 69.2485 205.774 69.6247 204.446 69.9257L202.048 70.4524L202.129 70.8737C202.21 71.2349 202.162 71.2951 201.643 71.4155C200.817 71.6111 200.59 72.0023 201.092 72.3936C201.449 72.6645 201.724 72.6795 204.948 72.6645C206.859 72.6645 208.447 72.6795 208.495 72.7096C208.576 72.7999 203.976 73.1159 203.133 73.0858C202.631 73.0557 202.486 73.1159 202.437 73.3417C202.372 73.6125 202.469 73.6276 203.927 73.5523C205.563 73.4771 206.292 73.5373 206.292 73.748C206.292 73.8232 205.272 73.8834 204.008 73.8834C201.983 73.8834 201.627 73.9286 200.93 74.2145C200.201 74.5305 199.796 74.9819 200.039 75.1926C200.088 75.2528 202.178 75.313 204.672 75.3582C209.143 75.4334 209.208 75.4184 209.208 75.1174C209.208 74.9218 209.062 74.7863 208.771 74.696C208.333 74.5907 208.333 74.5907 208.965 74.4703C209.322 74.4101 210.261 74.3499 211.039 74.3499L212.464 74.3349L212.416 75.1926L212.367 76.0654L212.902 76.0504C213.501 76.0203 213.485 75.9902 213.226 76.7727C213.064 77.2693 213.08 77.3897 213.274 77.5101C213.89 77.8713 214.181 77.48 214.392 76.1106C214.473 75.5989 214.602 75.1475 214.667 75.0873C214.732 75.012 215.169 75.0421 215.623 75.1324C217.194 75.4334 217.664 75.1023 218.442 73.1611C219.057 71.6261 219.187 70.663 218.944 69.2786C218.847 68.7067 218.814 68.2252 218.863 68.18C218.895 68.1349 219.252 68.3907 219.624 68.7368C220.143 69.2184 220.45 69.3689 220.839 69.3689C221.309 69.3689 221.357 69.3237 221.357 68.9174C221.357 68.6616 221.438 68.466 221.536 68.466C221.843 68.466 221.552 71.3252 221.017 73.5824C220.758 74.696 220.499 76.0654 220.434 76.6072C220.353 77.48 220.386 77.6154 220.645 77.7208C221.131 77.9164 229.02 77.9315 237.022 77.7659C243.777 77.6154 246.142 77.6606 246.142 77.9164C246.142 77.9766 244.879 78.0368 243.324 78.0368C241.752 78.0518 240.375 78.1271 240.213 78.2174C239.954 78.3528 239.986 78.398 240.505 78.6237C241.007 78.8494 241.331 78.8645 243.032 78.7591C244.101 78.6839 245.138 78.6538 245.332 78.6989C245.672 78.7742 245.672 78.7892 245.381 79.0149C245.219 79.1504 244.474 79.5416 243.728 79.8727C242.384 80.4596 242.352 80.4596 242.109 80.1737C241.882 79.9329 241.671 79.8878 240.634 79.9329C239.468 79.978 239.42 79.9931 239.371 80.3693C239.322 80.7756 239.387 80.7606 237.719 80.7907C237.492 80.8057 236.666 80.4897 235.872 80.1135C234.835 79.6169 234.236 79.4213 233.685 79.4062C232.956 79.3761 232.94 79.3912 232.891 79.8577C232.843 80.3242 232.794 80.3543 232.211 80.3543C231.612 80.3543 231.579 80.3844 231.336 81.0615C230.899 82.2504 230.883 82.2353 232.486 82.1902C234.301 82.1149 235.402 82.3407 236.115 82.9276L236.666 83.364L236.309 83.6047C235.84 83.9057 235.84 84.4023 236.277 84.929C236.649 85.3654 237.362 85.4557 237.476 85.0945C237.719 84.3722 237.719 84.3722 237.945 84.5678C238.14 84.7033 238.221 84.6732 238.367 84.4174L238.545 84.1013L238.82 84.4174C238.982 84.613 239.371 84.7635 239.76 84.8237C240.877 84.9591 241.59 84.3572 240.748 84.011C240.391 83.8606 240.359 83.7251 240.262 82.3708C240.181 81.1819 240.197 80.8509 240.391 80.6703C240.586 80.4897 240.699 80.4897 241.056 80.6402L241.493 80.8208L241.38 82.2805C241.299 83.4242 241.315 83.8154 241.493 84.0261C241.72 84.312 241.785 84.2669 243 83.3489C244.101 82.5212 244.393 82.3858 245.089 82.3106C245.834 82.2353 245.899 82.2052 245.996 81.7538C246.045 81.4979 246.401 80.9562 246.774 80.5649C247.146 80.1737 247.422 79.7824 247.389 79.6921C247.357 79.6018 247.098 79.3912 246.823 79.2256C246.547 79.0601 246.32 78.8795 246.304 78.8344C246.304 78.714 256.898 78.8043 259.717 78.9397C260.705 78.9848 261.531 79.0902 261.531 79.1654C261.531 79.2256 261.386 79.4213 261.207 79.5717C260.705 79.9931 260.495 82.9276 260.883 83.8756C261.045 84.297 261.078 84.297 261.337 84.0562C261.564 83.8606 261.629 83.4693 261.661 82.1149L261.71 80.4295L262.519 79.7373C263.297 79.0601 263.491 78.5785 263.184 78.1572C263.119 78.0669 262.6 77.9164 262.017 77.8111C261.45 77.7057 260.705 77.495 260.381 77.3295C259.668 76.9984 258.891 76.1858 259.004 75.8999C259.28 75.2227 260.268 71.4757 260.495 70.2116C260.77 68.7067 260.754 65.5917 260.478 64.9597C260.3 64.5533 259.069 64.1019 257.741 63.9514C256.898 63.8611 255.894 63.8912 253.853 64.1169C252.33 64.2674 250.208 64.4029 249.155 64.4029C248.086 64.4029 246.612 64.5082 245.851 64.6436C244.96 64.7941 244.182 64.8393 243.648 64.7791C243.194 64.7189 241.752 64.6888 240.424 64.7038C238.221 64.7339 237.962 64.7038 236.941 64.3427C235.71 63.9063 230.785 63.1388 227.756 62.9131C226.687 62.8228 223.48 62.6572 220.629 62.5218C217.777 62.3864 214.781 62.2509 213.954 62.2058L212.48 62.1155L211.735 60.5805C210.488 57.9922 210.455 57.8718 210.423 55.8252C210.391 54.1247 210.326 53.7786 209.807 52.2888C209.5 51.3709 209.16 50.167 209.062 49.5951C208.884 48.5117 208.56 48 208.042 48C207.75 48 207.734 48.0752 207.831 48.8578ZM193.949 51.5514C194.256 51.8825 194.418 51.9277 194.823 51.8524C195.342 51.7621 198.015 52.033 198.225 52.1985C198.29 52.2437 194.499 52.2888 189.802 52.2888C177.814 52.2888 168.062 52.6951 166.734 53.2369C165.082 53.9141 163.948 56.0509 162.636 61.0019C161.923 63.6655 161.89 64.6737 162.522 65.3208C163.122 65.9529 164.223 66.2087 165.713 66.0582C166.345 65.9829 168.192 65.8626 169.844 65.7723C171.497 65.6669 177.62 65.2004 183.452 64.7038C194.013 63.816 195.666 63.7106 204.591 63.2742C210.277 63.0033 217.729 63.1237 216.579 63.4849C216.206 63.5902 214.489 63.7257 212.448 63.8009C210.536 63.8611 208.706 63.9664 208.398 64.0116C206.713 64.2825 189.283 65.4562 175.757 66.2087C160.951 67.0363 157.047 67.2621 156.156 67.3524C154.86 67.4728 155.071 67.3373 156.642 67.0363C157.355 66.9009 158.229 66.6451 158.586 66.4645C159.169 66.1635 159.282 66.013 159.671 64.9296C160.271 63.2742 162.101 57.5407 162.555 55.9306C162.911 54.6665 162.911 54.6063 162.636 54.3204C161.907 53.5679 159.801 53.4024 155.913 53.7937C153.775 54.0043 147.408 54.8471 144.493 55.3136C138.499 56.2616 131.663 58.3835 128.423 60.3247C126.609 61.3932 122.883 65.0198 122.397 66.1786C121.96 67.2019 121.943 68.3004 122.381 68.7218C122.64 68.9926 122.656 69.0528 122.446 69.1281C122.089 69.2635 118.655 69.4291 118.655 69.3237C118.655 69.2635 118.979 68.8271 119.352 68.3606C119.74 67.8791 120.356 67.0815 120.712 66.5849C121.7 65.2305 125.313 61.9199 127.079 60.7611C130.383 58.5941 136.539 56.066 142.079 54.6213C143.99 54.1247 147.295 53.6432 152.997 53.0563C163.932 51.9126 188.797 50.7087 188.797 51.3107C188.797 51.401 188.619 51.4311 188.376 51.3709C188.052 51.2956 187.971 51.3257 188.02 51.4762C188.149 51.8223 188.635 51.8223 189.137 51.4762C189.785 51.0247 190.855 51.0398 191.081 51.4912C191.227 51.8073 191.34 51.8374 192.134 51.7922C193.106 51.732 193.301 51.3859 192.361 51.3859C192.037 51.3859 191.794 51.2956 191.745 51.1752C191.681 51.0097 191.843 50.9796 192.62 51.0548C193.382 51.1301 193.657 51.2204 193.949 51.5514ZM196.362 54.0645C196.913 54.0796 197.302 54.1548 197.237 54.215C197.156 54.2903 196.816 54.3505 196.459 54.3505C196.119 54.3354 195.698 54.3806 195.536 54.4257C195.228 54.5009 195.228 54.516 195.52 54.7116C195.682 54.832 196.054 54.9223 196.314 54.9223C196.702 54.9223 196.751 54.9674 196.573 55.0728C196.443 55.148 195.99 55.2233 195.568 55.2233C195.018 55.2233 194.791 55.2835 194.791 55.434C194.791 55.75 195.244 55.8553 196.168 55.75C197.237 55.6145 197.35 55.5393 197.626 54.832L197.836 54.2602L198.824 54.2752C200.104 54.2752 200.444 54.5611 201.303 56.2616C201.643 56.9539 202.437 58.2029 203.052 59.0606C204.089 60.4752 204.996 62.0101 204.996 62.3713C204.996 62.582 198.873 62.3713 196.492 62.0703C195.423 61.9349 193.851 61.6941 193.009 61.5286C192.167 61.3631 191.033 61.1674 190.498 61.0771C189.964 61.0019 189.024 60.7912 188.392 60.6257C186.983 60.2344 186.27 60.2946 184.423 61.0019C183.662 61.2878 182.544 61.6038 181.929 61.6941C181.313 61.7844 178.883 62.3412 176.502 62.9281C174.137 63.515 171.399 64.1922 170.411 64.433C168.467 64.8995 165.908 65.1252 164.985 64.8995C164.207 64.7038 163.964 63.9213 164.077 62.0703C164.223 59.6325 165.422 56.3519 166.523 55.3286C167.803 54.1548 172.29 53.8539 186.61 53.9743C191.421 54.0043 195.811 54.0495 196.362 54.0645ZM157.938 55.9607C158.035 56.1111 156.091 57.2398 155.962 57.1194C155.913 57.0893 156.043 56.984 156.221 56.8786C156.415 56.7883 156.561 56.5927 156.561 56.4422C156.561 56.2616 156.755 56.1262 157.177 56.0209C157.501 55.9306 157.792 55.8553 157.808 55.8403C157.824 55.8403 157.873 55.8854 157.938 55.9607ZM160.011 55.9155C160.06 55.9757 159.218 56.6077 158.148 57.3602C156.043 58.7898 153.337 60.4 153.208 60.2946C153.094 60.1742 155.346 58.5189 157.501 57.1495C159.509 55.8704 159.801 55.7199 160.011 55.9155ZM154.617 56.0359C154.617 56.081 154.18 56.4121 153.645 56.7883C153.111 57.1645 152.673 57.4354 152.673 57.3752C152.673 57.1946 154.163 55.9757 154.39 55.9757C154.52 55.9757 154.617 56.0058 154.617 56.0359ZM156.399 56.0509C156.399 56.081 156.172 56.2315 155.913 56.3519C155.638 56.4873 154.682 57.1194 153.759 57.7514C152.009 59.0004 151.701 59.1961 151.701 59.0907C151.701 58.9704 153.872 57.3903 155.022 56.6679C156.059 56.0208 156.399 55.8704 156.399 56.0509ZM152.673 56.5024C152.56 56.6228 152.349 56.7281 152.203 56.7281C152.009 56.7131 152.025 56.6529 152.333 56.4121C152.754 56.081 152.997 56.1412 152.673 56.5024ZM148.461 56.5475C148.461 56.6679 145.837 58.4437 145.222 58.7597C144.719 59.0155 145.335 58.5339 146.841 57.4956C148.542 56.3369 148.461 56.382 148.461 56.5475ZM146.744 56.8485C146.647 56.9087 146.323 57.1344 146.015 57.3602C145.708 57.5859 145.238 57.8417 144.979 57.932L144.493 58.0975L144.979 57.616C145.448 57.1495 146.679 56.5174 146.825 56.6679C146.874 56.7131 146.841 56.7883 146.744 56.8485ZM144.979 56.999C144.574 57.315 143.618 57.932 143.521 57.932C143.31 57.932 143.731 57.4505 144.185 57.1645C144.638 56.8937 145.286 56.7432 144.979 56.999ZM148.721 60.2194C146.939 65.1101 146.777 66.3291 147.878 67.2019C148.607 67.7888 148.478 67.864 146.647 67.864H145.351L145.756 67.2169C146.372 66.2237 146.906 64.8393 147.797 61.965C148.802 58.7296 149.482 56.9689 149.563 57.4354C149.595 57.631 149.207 58.8801 148.721 60.2194ZM141.366 57.7966C141.075 58.0524 140.783 58.2179 140.734 58.1728C140.589 58.0373 141.35 57.3301 141.642 57.3301C141.82 57.3301 141.723 57.4805 141.366 57.7966ZM160.708 58.0373C160.465 58.233 159.93 58.5038 159.509 58.6092C159.088 58.7296 158.165 59.2412 157.468 59.7378C155.929 60.8213 155.508 60.9417 156.788 59.9184C158.764 58.3835 162.279 56.683 160.708 58.0373ZM152.025 58.0073C151.912 58.1427 151.782 58.2029 151.717 58.1577C151.669 58.1126 151.734 58.0072 151.863 57.932C152.203 57.7213 152.252 57.7514 152.025 58.0073ZM147.101 58.6242C146.922 58.7296 146.744 58.7898 146.696 58.7446C146.647 58.6995 146.744 58.564 146.906 58.4437C147.084 58.3383 147.263 58.2781 147.311 58.3233C147.36 58.3684 147.263 58.5038 147.101 58.6242ZM144.088 58.5339C144.088 58.6092 143.845 58.7898 143.569 58.9102L143.035 59.1509L143.521 58.7747C144.071 58.3383 144.088 58.3233 144.088 58.5339ZM135.891 59.0456C135.777 59.3165 135.113 59.7378 134.822 59.7378C134.708 59.7228 134.87 59.5271 135.178 59.2864C135.777 58.7898 136.02 58.7145 135.891 59.0456ZM147.797 59.2262C147.7 59.3466 147.506 59.4369 147.392 59.4369C147.068 59.4369 147.117 59.0155 147.457 58.9403C147.862 58.865 148.024 58.9854 147.797 59.2262ZM136.474 59.5572C136.474 59.7529 136.28 59.8883 136.118 59.798C135.956 59.7077 136.101 59.4369 136.328 59.4369C136.409 59.4369 136.474 59.497 136.474 59.5572ZM137.77 59.7378C137.77 59.8131 137.446 60.8063 137.057 61.95C135.21 67.2621 135.097 67.7286 135.534 68.1349C135.729 68.3155 135.777 68.3004 134.66 68.5863C133.866 68.782 133.72 68.5713 134.271 68.0295C134.498 67.8038 134.692 67.5028 134.692 67.3674C134.692 67.232 134.822 66.9912 134.984 66.8407C135.13 66.7053 135.453 65.9378 135.696 65.1553C136.15 63.6053 137.252 60.0839 137.365 59.7679C137.446 59.5572 137.77 59.5271 137.77 59.7378ZM160.125 59.8733C160.125 60.0388 159.947 60.7009 159.736 61.348C159.525 61.9951 159.185 63.0635 158.991 63.7257C158.586 65.1252 158.359 65.5164 157.646 65.9077C156.755 66.4194 156.674 66.3441 156.788 65.1553C157.015 63.0786 157.63 61.7694 159.039 60.3699C159.914 59.5271 160.125 59.4218 160.125 59.8733ZM145.513 60.1742C146.437 60.2495 147.214 60.3398 147.246 60.3699C147.457 60.5655 145.546 65.8024 144.898 66.7655C144.606 67.2169 144.493 67.2621 143.812 67.2621C143.375 67.2621 142.273 67.3674 141.334 67.4878C140.394 67.6082 139.098 67.7135 138.434 67.7135H137.235L137.333 66.7655C137.381 66.2538 137.576 65.4262 137.754 64.9296C138.629 62.4165 139.406 60.5655 139.617 60.4602C140.265 60.114 143.018 59.9936 145.513 60.1742ZM135.923 61.0621C135.648 62.7475 134.368 66.0883 133.526 67.4126L132.991 68.2402L129.913 68.2252C126.155 68.2101 125.507 68.0747 125.588 67.247C125.621 66.9611 125.75 66.5096 125.88 66.2388C126.171 65.5766 127.775 63.6053 128.796 62.6572C130.027 61.5286 130.756 61.2577 133.267 61.0019C134.433 60.8966 135.47 60.731 135.567 60.6407C135.891 60.3398 136.02 60.5053 135.923 61.0621ZM152.576 61.5436C153.516 62.1305 154.228 62.9432 154.536 63.7859C154.795 64.4781 154.86 66.013 154.649 66.299C154.487 66.5397 151.021 67.0213 150.34 66.9009C149.66 66.7805 149.271 66.2237 149.271 65.381C149.271 65.08 149.563 64.0116 149.919 62.9883C150.276 61.98 150.567 61.032 150.567 60.8966C150.567 60.6708 150.632 60.6708 151.215 60.8665C151.572 60.9869 152.187 61.2878 152.576 61.5436ZM184.877 62.2359C185.59 62.6873 185.136 63.3194 184.31 63.0334C183.873 62.883 183.662 62.3111 183.954 62.1305C184.278 61.95 184.472 61.965 184.877 62.2359ZM187.177 62.266C187.55 62.4767 187.615 62.582 187.469 62.7174C187.048 63.1087 186.043 62.7927 186.043 62.2961C186.043 61.9048 186.513 61.9048 187.177 62.266ZM189.526 62.597C189.478 62.6723 189.364 62.7475 189.267 62.7475C189.186 62.7475 189.121 62.6723 189.121 62.597C189.121 62.5067 189.235 62.4466 189.38 62.4466C189.51 62.4466 189.575 62.5067 189.526 62.597ZM183.079 62.8228C183.192 63.1237 183.079 63.2291 182.755 63.1087C182.35 62.9733 182.269 62.597 182.658 62.597C182.836 62.597 183.014 62.7024 183.079 62.8228ZM181.734 63.1237C181.783 63.2592 181.718 63.3946 181.556 63.4548C181.281 63.5601 180.827 63.3495 180.73 63.0786C180.633 62.8077 181.621 62.8529 181.734 63.1237ZM179.855 63.4699C179.904 63.6053 179.807 63.6655 179.548 63.6203C179.353 63.6053 179.159 63.4849 179.11 63.3796C179.062 63.2441 179.159 63.1839 179.418 63.2291C179.612 63.2441 179.807 63.3645 179.855 63.4699ZM225.747 63.6504C229.765 64.0266 232.81 64.8092 234.657 65.9679L235.694 66.5999L235.71 67.4728C235.742 68.18 235.84 68.481 236.212 68.9776C236.682 69.6096 238.464 70.8286 238.658 70.663C238.853 70.4674 238.885 68.6164 238.691 68.165C238.415 67.5329 237.378 66.6902 235.807 65.8325C235.078 65.4111 234.479 65.0349 234.479 64.9897C234.479 64.9446 235.37 65.0951 236.471 65.3359C244.571 67.1116 249.771 70.5276 251.909 75.4635C252.217 76.1708 252.46 76.7878 252.46 76.8329C252.46 76.8931 249.933 76.9082 246.855 76.848C240.602 76.7577 240.845 76.8028 240.683 75.7043C240.634 75.3582 240.537 75.0421 240.456 74.997C240.181 74.8465 239.679 75.5387 239.582 76.2009C239.468 76.848 239.436 76.8931 238.95 76.8931C235.791 76.8781 221.617 76.5771 221.536 76.5169C221.471 76.4868 221.617 75.4785 221.892 74.3048C222.313 72.3936 222.378 71.8368 222.394 69.2936C222.41 66.6752 222.378 66.3592 222.054 65.5315C221.843 65.0499 221.455 64.3878 221.195 64.0718L220.693 63.4999H222.378C223.318 63.4999 224.824 63.5752 225.747 63.6504ZM176.81 63.9514C176.81 64.0266 176.615 64.1019 176.389 64.1019C176.162 64.1019 176.016 64.0417 176.081 63.9514C176.13 63.8611 176.324 63.8009 176.502 63.8009C176.664 63.8009 176.81 63.8611 176.81 63.9514ZM217.308 64.6286C217.308 64.6737 217.065 65.1252 216.773 65.6368L216.222 66.5849L216.06 66.1033C215.931 65.7271 215.947 65.5616 216.109 65.4412C216.384 65.2305 216.401 64.749 216.141 64.6587C216.028 64.6135 216.239 64.5684 216.627 64.5684C217 64.5533 217.308 64.5834 217.308 64.6286ZM212.237 66.1936L212.27 67.548L211.589 67.6383C209.143 67.9393 204.024 68.3456 200.185 68.5412C197.707 68.6616 194.402 68.8572 192.847 68.9926C191.292 69.113 185.314 69.4892 179.564 69.8203C173.813 70.1514 166.685 70.5878 163.721 70.7684C160.74 70.949 158.294 71.0693 158.278 71.0242C158.132 70.7985 158.715 68.9626 159.056 68.5562C159.444 68.0747 159.493 68.0596 161.048 67.9693C161.923 67.9092 164.061 67.7587 165.794 67.6383C169.52 67.3825 176.551 66.9912 188.473 66.3592C200.833 65.7121 207.005 65.3208 208.398 65.08C209.062 64.9747 210.196 64.8844 210.909 64.8694L212.205 64.8543L212.237 66.1936ZM256.785 65.08C256.817 65.1703 256.672 65.3208 256.493 65.4412C256.186 65.6067 256.121 65.6067 256.007 65.4111C255.894 65.2456 255.7 65.2305 255.019 65.3208C254.55 65.3961 252.849 65.5164 251.245 65.6067C249.641 65.682 247.373 65.8626 246.191 65.998C244.393 66.2237 243.907 66.2237 243.145 66.0732C242.659 65.9679 242.287 65.8325 242.319 65.7723C242.368 65.7121 242.789 65.6519 243.259 65.6218C247.13 65.4713 255.602 65.0048 255.667 64.9296C255.829 64.7941 256.72 64.9145 256.785 65.08ZM250.727 66.4645C250.338 66.4946 250.03 66.5698 250.03 66.63C250.03 66.6902 249.366 66.7504 248.572 66.7504C247.762 66.7655 247.114 66.7203 247.114 66.6451C247.114 66.4495 247.616 66.3893 249.544 66.4043C250.565 66.4043 251.099 66.4344 250.727 66.4645ZM215.364 66.6601C215.364 66.7354 215.153 66.8106 214.878 66.8106C214.619 66.8106 214.392 66.7354 214.392 66.6601C214.392 66.5698 214.619 66.5096 214.878 66.5096C215.153 66.5096 215.364 66.5698 215.364 66.6601ZM250.143 67.3524C250.095 67.3975 249.949 67.4126 249.836 67.3674C249.706 67.3223 249.755 67.2771 249.933 67.2771C250.111 67.2621 250.208 67.3072 250.143 67.3524ZM248.507 67.6082C247.924 67.7737 247.892 67.8038 248.151 68.0145C248.426 68.2101 248.426 68.2402 248.135 68.4208C247.892 68.6014 247.875 68.6465 248.086 68.7669C248.491 69.0077 248.928 68.9324 249.009 68.6164C249.107 68.2703 249.949 68.0145 251.002 68.0145C251.666 68.0295 251.698 68.0446 251.423 68.2402C251.164 68.4208 251.148 68.496 251.326 68.6917C251.504 68.8873 251.391 68.9174 250.386 68.9174C249.722 68.9174 249.188 68.9926 249.123 69.0829C248.961 69.3388 249.366 69.5043 250.014 69.4291C250.597 69.3689 250.597 69.3689 250.16 69.5494C249.641 69.7601 249.56 70.1213 250.03 70.1213C250.241 70.1213 250.354 70.2266 250.354 70.4072C250.354 70.5727 250.581 70.8436 250.84 71.0242C251.115 71.2048 251.326 71.4756 251.326 71.6412C251.326 71.8368 251.439 71.9271 251.715 71.9271C251.941 71.9271 252.168 71.8519 252.217 71.7766C252.411 71.4907 252.622 71.6261 252.541 71.9722C252.476 72.198 252.525 72.3936 252.687 72.514C252.962 72.7247 253.011 73.1159 252.849 73.7028L252.735 74.0489L252.363 73.7179C252.136 73.5222 251.731 73.0256 251.455 72.6193C250.71 71.5208 249.884 70.5727 249.641 70.5727C249.528 70.5727 249.204 70.2718 248.912 69.8956C248.621 69.5043 248.086 69.0378 247.746 68.8271C247.244 68.5412 247.114 68.3757 247.114 68.0295C247.114 67.7286 247.017 67.563 246.839 67.5179C246.677 67.4727 247.13 67.4427 247.843 67.4427C249.09 67.4427 249.107 67.4426 248.507 67.6082ZM217.211 68.1048C217.13 68.3757 217.211 68.5863 217.486 68.8572C217.794 69.1582 217.81 69.2184 217.567 69.2184C217.421 69.2184 217.259 69.113 217.211 68.9926C217.081 68.6917 216.708 68.7067 216.514 69.0227C216.271 69.4441 216.158 69.1582 216.352 68.6014C216.595 67.9693 216.789 67.7135 217.081 67.7135C217.243 67.7135 217.292 67.8189 217.211 68.1048ZM157.905 68.782C157.63 69.1732 157.42 69.6999 157.371 70.1664C157.29 70.8587 157.241 70.9339 156.804 71.0543C156.545 71.1295 154.601 71.28 152.495 71.4004C150.389 71.5057 148.461 71.6562 148.202 71.7164C147.441 71.882 147.846 71.6412 148.802 71.3553C149.725 71.0844 150.227 70.5426 150.017 70.046C149.936 69.8203 149.774 69.7902 148.947 69.8655C148.024 69.9407 147.959 69.9257 147.635 69.5043C147.23 68.9776 146.679 68.9325 145.87 69.3839C145.092 69.8354 144.898 70.1062 145.076 70.5426C145.367 71.2349 145.254 71.581 144.719 71.7616C144.428 71.8519 143.99 71.9271 143.731 71.9271C143.261 71.9271 143.245 71.9121 143.359 71.28C143.423 70.9339 143.699 70.2417 143.99 69.7451L144.525 68.8422L146.372 68.7218C149.514 68.5261 158.262 68.0747 158.31 68.1048C158.343 68.1198 158.165 68.4208 157.905 68.782ZM215.364 68.9776C215.364 69.098 215.299 69.2485 215.202 69.2936C215.121 69.3388 215.04 69.2485 215.04 69.0829C215.04 68.9024 215.121 68.7669 215.202 68.7669C215.299 68.7669 215.364 68.8572 215.364 68.9776ZM143.035 69.6999C142.824 70.1363 142.565 70.8135 142.468 71.2048C142.29 71.8669 142.241 71.897 141.609 71.9873C140.265 72.1528 134.368 72.529 134.368 72.4538C134.368 72.4388 134.838 72.198 135.421 71.9422C137.122 71.1596 137.252 70.5276 135.745 70.347C135.227 70.2868 134.53 70.1514 134.174 70.031C133.267 69.73 132.7 69.7601 132.181 70.1514C131.792 70.4373 131.744 70.5426 131.825 71.0844C131.873 71.4305 131.971 71.8368 132.019 72.0174C132.181 72.4839 131.711 72.83 130.95 72.83C130.156 72.83 130.14 72.7247 130.95 70.8737L131.549 69.4441L134.465 69.3388C136.053 69.2786 138.24 69.1582 139.309 69.098C140.378 69.0227 141.739 68.9475 142.338 68.9325L143.423 68.9174L143.035 69.6999ZM255.538 69.2184C255.538 69.2936 255.473 69.3689 255.376 69.3689C255.295 69.3689 255.214 69.2936 255.214 69.2184C255.214 69.1281 255.295 69.0679 255.376 69.0679C255.473 69.0679 255.538 69.1281 255.538 69.2184ZM257.384 69.7451C257.53 69.9407 257.789 70.2417 257.984 70.4072C258.178 70.5727 258.275 70.7684 258.227 70.8436C258 71.1897 258.081 72.6946 258.34 72.9504C258.583 73.1912 258.583 73.3116 258.356 74.1844C258.227 74.7261 258.097 75.6742 258.081 76.2912L258.049 77.4198L258.664 77.5552C258.988 77.6305 259.263 77.7509 259.263 77.8261C259.263 77.8863 256.915 77.9465 254.047 77.9465C250.613 77.9465 248.896 77.8863 249.058 77.796C249.188 77.7208 250.224 77.6455 251.358 77.6455C253.837 77.6455 253.804 77.6756 253.335 75.5688C253.27 75.298 253.335 75.2378 253.675 75.2378C255.44 75.2378 256.607 73.5222 256.801 70.6028C256.834 69.9257 256.931 69.3689 256.996 69.3689C257.06 69.3689 257.239 69.5344 257.384 69.7451ZM211.476 70.0009C211.476 70.0611 211.039 70.1213 210.488 70.1213C209.889 70.1213 209.548 70.0611 209.613 69.9708C209.662 69.8805 209.888 69.8203 210.099 69.8203C210.31 69.8203 210.52 69.7601 210.585 69.6698C210.698 69.5043 211.476 69.7902 211.476 70.0009ZM130.302 70.332C130.043 70.7082 129.703 71.4456 129.557 71.9873L129.298 72.9654L128.488 73.131C127.062 73.4169 125.864 74.1392 124.438 75.5538C123.369 76.6222 123.061 76.848 122.834 76.7276C122.689 76.6523 121.911 76.4417 121.133 76.2611C119.886 75.9601 119.287 75.915 116.306 75.93C112.499 75.93 110.944 76.1106 108.336 76.9232C106.052 77.6305 102.715 79.6319 101.014 81.3174C100.269 82.0848 100.026 82.13 99.8478 81.5431C99.783 81.3475 99.3132 79.9931 98.8111 78.5484C97.4827 74.7261 96.77 71.6261 97.2397 71.6261C97.5313 71.6261 105.777 71.1295 114.686 70.5727C128.488 69.715 128.504 69.715 129.703 69.6849L130.788 69.6698L130.302 70.332ZM146.841 70.2718C146.841 70.4674 146.728 70.5727 146.517 70.5727C146.307 70.5727 146.194 70.4674 146.194 70.2718C146.194 70.0761 146.307 69.9708 146.517 69.9708C146.728 69.9708 146.841 70.0761 146.841 70.2718ZM185.071 70.4373C185.071 70.7383 183.597 72.4839 183.209 72.6494C182.301 73.0407 180.827 73.1611 170.573 73.6577C168.079 73.7781 164.871 73.9135 163.446 73.9586C162.02 74.0038 160.173 74.079 159.363 74.1242L157.857 74.1994V73.3266C157.857 71.7315 157.727 71.8218 160.254 71.7164C165.163 71.4907 169.958 71.1295 170.573 70.9339C171.043 70.7834 172.193 70.7232 174.785 70.7082C176.745 70.7082 179.337 70.6028 180.536 70.4975C183.419 70.2417 185.071 70.2266 185.071 70.4373ZM133.639 70.8135C133.963 71.1145 133.882 71.3854 133.461 71.4456C132.975 71.5057 132.7 71.2499 132.829 70.8888C132.959 70.5125 133.267 70.4824 133.639 70.8135ZM209.127 70.8587C209.03 70.9339 208.09 71.0242 207.021 71.0543C205.239 71.1145 205.142 71.0994 205.887 70.9339C206.843 70.7232 209.354 70.663 209.127 70.8587ZM210.585 71.6111C210.812 71.7014 210.569 71.7616 209.775 71.8368C209.16 71.897 208.252 71.9722 207.799 72.0174C207.248 72.0776 206.94 72.0625 206.94 71.9572C206.94 71.8669 207.361 71.7616 207.88 71.7014C208.382 71.6412 208.884 71.581 208.965 71.5509C209.257 71.4606 210.261 71.4907 210.585 71.6111ZM206.049 71.9271C205.58 72.1077 203.652 72.1077 203.781 71.9271C203.83 71.8368 204.446 71.7766 205.126 71.7917C205.968 71.7917 206.276 71.8368 206.049 71.9271ZM156.885 73.1159V74.2897L153.208 74.3951C151.167 74.4402 148.04 74.5305 146.226 74.5756L142.937 74.681L142.986 73.7179L143.035 72.7548L143.926 72.6494C144.412 72.5892 147.376 72.4087 150.486 72.2582C153.613 72.0926 156.318 71.9572 156.529 71.9422C156.869 71.9271 156.885 71.9722 156.885 73.1159ZM203.052 71.9873C203.052 72.1077 202.226 72.1829 202.145 72.0625C202.097 71.9873 202.291 71.9271 202.55 71.9271C202.826 71.9271 203.052 71.9572 203.052 71.9873ZM210.472 72.6043C210.423 72.6494 210.099 72.7247 209.759 72.7849C209.322 72.8451 209.176 72.815 209.289 72.7096C209.386 72.6193 209.678 72.529 209.937 72.4989C210.455 72.4388 210.617 72.4839 210.472 72.6043ZM142.225 73.763C142.16 74.2897 142.095 74.7261 142.063 74.7562C142.047 74.7713 140.394 74.8616 138.402 74.9518C136.409 75.0271 133.753 75.1926 132.505 75.298C131.258 75.4033 130.189 75.4635 130.124 75.4334C129.913 75.3281 129.978 74.1392 130.205 73.7329L130.416 73.3567L134.854 73.1159C137.3 72.9805 139.989 72.8601 140.815 72.8601L142.338 72.83L142.225 73.763ZM96.203 73.6727C96.3812 74.1091 96.3002 74.3349 95.9762 74.3349C95.6198 74.3349 95.6036 74.2897 95.7494 73.763C95.8628 73.3718 96.0572 73.3266 96.203 73.6727ZM208.803 73.5674C208.706 73.7329 208.074 73.7179 208.074 73.5523C208.074 73.4921 208.269 73.432 208.495 73.432C208.722 73.432 208.868 73.4921 208.803 73.5674ZM129.184 74.7713V75.6441L128.455 75.915C127.484 76.2611 126.917 76.7125 126.171 77.7659C125.847 78.2324 125.556 78.6387 125.523 78.6688C125.459 78.7591 123.839 78.0669 123.839 77.9465C123.839 77.8863 124.13 77.4198 124.503 76.9082C125.491 75.5237 126.981 74.4252 128.374 74.0188C129.152 73.8082 129.184 73.8383 129.184 74.7713ZM213.598 75.1926C213.436 75.4485 213.436 75.4485 213.42 75.1625C213.42 74.997 213.485 74.696 213.55 74.4853L213.663 74.1091L213.712 74.5154C213.744 74.7412 213.695 75.0421 213.598 75.1926ZM206.179 74.4853C207.07 74.4853 207.766 74.5154 207.718 74.5606C207.685 74.6057 206.843 74.6659 205.839 74.696C204.429 74.7412 203.976 74.7111 203.749 74.5305C203.49 74.3349 203.506 74.3198 204.008 74.3951C204.3 74.4402 205.288 74.4853 206.179 74.4853ZM202.21 74.5907C202.048 74.6208 201.789 74.6208 201.643 74.5907C201.481 74.5455 201.611 74.5154 201.919 74.5154C202.226 74.5154 202.356 74.5455 202.21 74.5907ZM156.853 75.4184C156.95 75.5387 157.015 76.7426 157.031 78.3227C157.047 81.2722 157.29 85.8921 157.533 87.8033C157.63 88.4804 157.63 89.0523 157.549 89.1275C157.468 89.2028 154.601 89.2329 151.118 89.2028C145.724 89.1576 144.736 89.1125 144.233 88.9018L143.634 88.661L143.537 86.9455C143.472 86.0125 143.359 83.4091 143.278 81.1819C143.18 78.9397 143.067 76.8329 143.018 76.5018L142.921 75.8698L144.525 75.7795C145.4 75.7344 148.154 75.614 150.648 75.5237C153.127 75.4485 155.2 75.3431 155.249 75.298C155.411 75.1475 156.691 75.2528 156.853 75.4184ZM96.9967 76.547C97.4341 77.9615 97.4341 78.0217 96.8186 78.0669C96.3488 78.112 96.2678 78.0518 96.0734 77.6154C95.9438 77.3446 95.798 76.8028 95.7332 76.3965L95.6198 75.6892H96.1706C96.7214 75.6892 96.7376 75.7193 96.9967 76.547ZM142.209 78.8043C142.354 82.9125 142.63 88.029 142.727 88.4955C142.824 88.8717 142.792 88.8868 141.787 88.9921C141.237 89.0372 138.531 89.0372 135.81 88.9921L130.837 88.8868L130.74 88.1945C130.626 87.3217 130.367 82.9276 130.221 79.2106L130.124 76.3363L132.44 76.2159C135.891 76.0504 139.633 75.8849 140.945 75.8698L142.111 75.8397L142.209 78.8043ZM118.655 76.7426C119.497 76.7878 119.935 76.863 119.627 76.8781C118.525 76.9232 113.504 76.9683 113.552 76.9232C113.585 76.8931 113.957 76.8179 114.395 76.7426C115.367 76.5921 116.662 76.5921 118.655 76.7426ZM129.022 77.0737C129.022 77.2693 129.136 79.045 129.249 81.0314C129.379 83.0178 129.541 85.6062 129.606 86.78L129.719 88.9319H128.974C128.131 88.9319 127.451 89.3382 127.613 89.7295C127.694 89.9251 127.937 89.9853 128.682 89.9853C129.217 89.9853 129.687 90.0455 129.735 90.1207C129.897 90.3465 129.006 90.4668 127.807 90.3615L126.657 90.2562L126.463 88.5557C126.171 85.9523 125.507 84.2217 124.389 83.063C123.58 82.2353 122.964 81.9344 121.652 81.6936C120.162 81.4227 115.788 81.4227 114.605 81.6785C113.423 81.9494 112.094 82.4009 111.608 82.7018C111.349 82.8674 111.058 82.9125 110.717 82.8373C109.713 82.6266 108.126 84.0261 107.51 85.6363C107.121 86.7198 106.83 88.2096 106.83 89.263V89.9853H105.404C104.61 89.9853 102.65 89.9402 101.047 89.88L98.1307 89.7897L98.4061 88.9469C99.7668 84.8237 102.877 81.3475 106.911 79.4965C111.527 77.3596 117.829 77.1339 123.045 78.9096C123.612 79.1052 124.454 79.4062 124.892 79.5717C125.442 79.7824 125.799 79.8276 125.977 79.7373C126.123 79.662 126.641 79.0601 127.143 78.413C128.31 76.863 129.022 76.3664 129.022 77.0737ZM121.328 77.1941C121.457 77.3897 121.085 77.3897 120.761 77.1941C120.566 77.0737 120.583 77.0436 120.874 77.0436C121.069 77.0436 121.279 77.1038 121.328 77.1941ZM194.84 79.1353C195.585 79.3009 196.184 79.7824 196.297 80.2941C196.362 80.6552 196.168 80.8057 196.054 80.4746C195.957 80.2038 195.455 80.4445 195.261 80.8659C194.985 81.3926 195.18 81.7086 195.763 81.7086C196.411 81.7086 196.378 81.9795 195.682 82.6115C195.374 82.8975 195.115 83.1984 195.115 83.3038C195.115 83.3941 195.342 83.9208 195.601 84.4625C195.876 85.0193 196.087 85.5008 196.087 85.546C196.087 85.5911 195.925 85.5911 195.714 85.546C195.374 85.4557 195.358 85.5008 195.309 86.5994C195.277 87.5023 195.309 87.7431 195.52 87.8183C195.844 87.9387 195.828 88.1042 195.423 88.6309C195.228 88.8717 195.115 89.1727 195.163 89.2931C195.342 89.6994 195.131 89.5639 194.872 89.0824C194.597 88.6008 194.548 87.096 194.775 86.178C194.953 85.5008 194.775 85.4557 194.143 86.0426C193.122 87.0057 193.479 89.9251 194.71 90.6775C195.034 90.8732 195.083 90.9785 194.953 91.2042C194.856 91.3547 194.823 91.6557 194.888 91.8814C194.985 92.2426 194.969 92.2727 194.613 92.1673C192.912 91.6858 192.005 88.4804 192.831 85.9222C193.365 84.312 193.041 83.4843 192.361 84.7183C191.081 87.0508 191.389 90.8431 192.993 92.4382C193.949 93.4164 194.904 93.5518 195.455 92.7994C195.666 92.5435 196.249 91.8965 196.767 91.3698C197.707 90.4217 198.063 89.6542 197.383 89.9853C196.929 90.211 196.978 90.0304 197.545 89.4436C198.063 88.8868 198.598 88.029 198.403 88.029C198.339 88.029 198.128 88.1795 197.917 88.3601C197.334 88.8717 197.269 88.5256 197.853 87.9688C198.322 87.5173 198.355 87.412 198.225 86.9605C198.079 86.4339 198.031 86.4188 197.464 86.6144C197.172 86.7198 197.172 86.6897 197.529 86.3285C197.917 85.9222 197.869 85.6212 197.415 85.6212C197.205 85.6212 197.124 85.5008 197.14 85.1999C197.14 84.914 197.026 84.7484 196.783 84.6431C196.573 84.5678 196.411 84.4174 196.411 84.3271C196.411 84.1465 197.253 83.078 197.399 83.063C197.448 83.063 197.691 83.5295 197.95 84.1164C198.274 84.8688 198.371 85.3052 198.306 85.6965C198.225 86.1329 198.258 86.2232 198.517 86.2232C198.743 86.2232 198.841 86.4188 198.986 87.1712C199.229 88.4955 199.213 88.6309 198.841 88.6309C198.549 88.6309 198.517 88.7363 198.517 89.9251C198.517 91.2193 198.517 91.2193 198.905 91.1591C199.229 91.0989 199.343 91.1741 199.505 91.5353C199.699 91.9717 200.704 92.5285 201.319 92.5435C201.643 92.5435 201.611 92.7542 201.011 94.5149C200.574 95.779 199.877 96.8926 199.294 97.2688C199.1 97.4042 198.565 97.7503 198.112 98.0362C196.557 99.0445 195.633 99.3906 194.386 99.3906C193.106 99.3906 192.329 99.0746 190.693 97.8707C189.51 97.0129 189.154 96.5314 189.413 96.1401C189.591 95.8994 189.542 95.7338 189.202 95.1921C188.57 94.1989 187.858 92.2426 187.582 90.7829C187.323 89.3984 187.275 86.3285 187.501 85.0945C187.566 84.6732 187.598 84.312 187.582 84.297C187.55 84.2669 187.372 84.2819 187.194 84.3421C186.821 84.4474 186.529 85.1698 186.351 86.4489C186.222 87.3518 186.222 87.3518 186.27 86.2232C186.303 85.546 186.481 84.7033 186.691 84.1164C187.194 82.7921 188.295 80.7606 188.603 80.595C188.749 80.5198 189.154 80.2038 189.51 79.8878C190.109 79.3912 190.304 79.3159 191.47 79.1805C193.203 78.9848 194.094 78.9848 194.84 79.1353ZM98.1469 79.8878C98.5519 81.0465 98.5195 81.1067 97.6123 81.1067C96.8348 81.1067 96.8186 81.0916 96.5594 80.5047C96.4136 80.1737 96.3002 79.7222 96.3002 79.5266C96.3002 79.1805 96.365 79.1504 97.0939 79.1504H97.8877L98.1469 79.8878ZM245.98 79.8276C245.98 79.8727 245.413 80.1737 244.717 80.4897C244.004 80.8208 243.21 81.2722 242.935 81.4829C242.514 81.814 242.416 81.8441 242.416 81.6334C242.416 81.1669 243.388 80.5198 244.652 80.1436C246.11 79.7072 245.98 79.7373 245.98 79.8276ZM234.608 80.7907C234.657 80.9412 234.576 80.9562 234.301 80.881C233.863 80.7455 233.653 80.5047 233.782 80.3091C233.879 80.1586 234.511 80.5198 234.608 80.7907ZM206.697 80.4746C206.47 80.6853 204.203 80.9412 202.566 80.9412C201.011 80.9562 199.003 80.7004 198.76 80.4897C198.727 80.4596 200.525 80.4295 202.745 80.4145C204.964 80.4145 206.746 80.4445 206.697 80.4746ZM209.305 81.0314C209.127 81.1518 208.771 81.2572 208.495 81.2572C207.912 81.2572 208.026 81.1067 208.755 80.9562C209.548 80.7756 209.646 80.7907 209.305 81.0314ZM207.475 81.3625C207.361 81.3926 207.167 81.3926 207.07 81.3625C206.956 81.3174 207.037 81.2873 207.264 81.2873C207.491 81.2873 207.572 81.3174 207.475 81.3625ZM197.059 81.7086C197.172 81.9193 197.188 82.0999 197.075 82.2805C196.929 82.4911 196.913 82.4761 196.897 82.1149C196.897 81.8892 196.832 81.7086 196.735 81.7086C196.654 81.7086 196.573 81.6334 196.573 81.5581C196.573 81.3023 196.881 81.3926 197.059 81.7086ZM238.059 81.7086C238.561 82.0848 238.253 82.0999 237.719 81.7086C237.492 81.5431 237.395 81.4077 237.492 81.4077C237.605 81.4077 237.848 81.5431 238.059 81.7086ZM257.206 81.814C257.093 81.8441 256.866 81.8441 256.72 81.814C256.558 81.7688 256.655 81.7387 256.915 81.7387C257.19 81.7387 257.303 81.7688 257.206 81.814ZM101.16 82.5363C101.047 82.6717 100.917 82.7319 100.868 82.6868C100.82 82.6567 100.885 82.5212 100.998 82.3858C101.111 82.2504 101.241 82.1902 101.29 82.2353C101.338 82.2654 101.273 82.4009 101.16 82.5363ZM99.216 82.6115C99.4266 82.7319 99.3942 82.8523 99.0378 83.4693C98.8111 83.8606 98.5033 84.2368 98.3575 84.3271C97.9687 84.5528 97.4989 84.0411 97.3531 83.2586C97.2721 82.7319 97.2883 82.6266 97.5475 82.5664C98.0821 82.446 98.973 82.461 99.216 82.6115ZM119.271 82.6717C118.655 83.0931 119.173 83.7402 120.194 83.8455C120.647 83.8907 120.68 83.8606 120.728 83.3188C120.777 82.8072 120.826 82.762 121.263 82.762C121.943 82.762 121.846 83.1683 120.907 84.2669C120.647 84.5528 120.388 85.0193 120.34 85.3052C120.226 85.7868 120.243 85.8018 120.566 85.6363C120.761 85.546 121.214 85.0644 121.571 84.5678C122.381 83.4542 122.721 83.2586 123.272 83.6047C123.644 83.8305 123.661 83.8756 123.45 84.2368C123.32 84.4625 122.883 85.0042 122.478 85.4557C121.409 86.5994 121.376 86.6897 121.652 87.4421C121.798 87.8033 121.862 88.1795 121.83 88.2848C121.781 88.3902 121.814 88.5105 121.895 88.5557C121.992 88.6159 122.057 88.7965 122.057 88.9921C122.057 89.1727 122.138 89.3984 122.251 89.5037C122.381 89.6241 122.381 89.7295 122.203 89.9251C122.073 90.0605 121.684 90.6926 121.312 91.3246L120.664 92.4683L119.011 92.5134C117.391 92.5586 117.359 92.5586 117.359 92.9198C117.359 93.2057 117.472 93.311 117.975 93.4314C118.299 93.5217 118.736 93.5969 118.93 93.5969C119.659 93.5969 121.052 92.9649 122.429 92.0018C123.806 91.0387 123.855 90.9785 123.774 90.527C123.709 90.1809 123.79 89.8348 124.065 89.3382C124.406 88.7062 124.422 88.6159 124.195 88.4955C123.968 88.3751 123.968 88.33 124.211 87.9688C124.519 87.5474 125.07 87.2164 125.199 87.397C125.378 87.6678 125.621 89.3984 125.523 89.7596C125.475 89.9702 125.28 90.2411 125.102 90.3465C124.827 90.527 124.811 90.6023 124.973 90.8882C125.135 91.1741 125.086 91.3848 124.568 92.3178C123.725 93.8829 122.915 94.5751 121.555 94.9513C120.826 95.162 120.388 95.3727 120.259 95.5833C120.097 95.8693 119.967 95.8843 118.477 95.8241L116.873 95.7639V96.1853C116.873 97.2838 115.059 96.1251 113.73 94.1688C111.641 91.0838 111.025 87.412 112.256 85.1698C113.374 83.1382 114.702 82.4911 117.764 82.4761C119.287 82.4761 119.497 82.5062 119.271 82.6717ZM255.214 83.6649C255.343 83.7402 255.392 83.8455 255.327 83.9057C255.262 83.9659 255.084 83.9057 254.938 83.7703C254.647 83.4994 254.809 83.4242 255.214 83.6649ZM179.402 85.0193C179.126 85.9673 178.997 85.6062 179.256 84.613C179.386 84.0863 179.499 83.8756 179.531 84.0712C179.564 84.2518 179.499 84.6732 179.402 85.0193ZM204.429 83.9659C203.96 84.1465 202.68 84.1465 202.809 83.9659C202.858 83.8756 203.328 83.8154 203.83 83.8305C204.494 83.8305 204.656 83.8756 204.429 83.9659ZM172.922 84.4174C172.922 84.5829 173.052 84.8387 173.214 84.9741C173.424 85.1848 173.457 85.3203 173.327 85.5761C173.246 85.7717 173.116 85.9222 173.052 85.9222C172.971 85.9222 172.922 85.7717 172.922 85.5761C172.906 85.3955 172.809 84.9892 172.695 84.6732C172.501 84.2067 172.501 84.1164 172.695 84.1164C172.825 84.1164 172.922 84.2518 172.922 84.4174ZM205.32 84.5678C205.612 84.7484 204.527 84.7484 203.781 84.5678C203.376 84.4775 203.441 84.4474 204.186 84.4324C204.672 84.4324 205.191 84.4926 205.32 84.5678ZM207.054 84.5076C207.005 84.5528 206.859 84.5678 206.746 84.5227C206.616 84.4775 206.665 84.4324 206.843 84.4324C207.021 84.4174 207.118 84.4625 207.054 84.5076ZM123.855 85.2149C123.58 85.4707 123.466 85.23 123.709 84.8839C123.887 84.613 123.936 84.5979 123.968 84.8086C124.001 84.944 123.952 85.1246 123.855 85.2149ZM208.512 84.7484C208.058 84.8538 207.831 84.8538 207.702 84.7334C207.572 84.613 207.734 84.5678 208.333 84.5829L209.127 84.5979L208.512 84.7484ZM97.6609 85.3353C97.7581 85.4256 97.6933 85.7266 97.4665 86.1479C97.2721 86.5241 97.1101 86.9455 97.1101 87.0659C97.1101 87.5775 96.6404 86.9455 96.5432 86.2984C96.3812 85.3353 96.5432 84.9741 97.0777 85.0945C97.3207 85.1397 97.5799 85.2601 97.6609 85.3353ZM210.455 85.5911C215.542 85.6513 219.77 85.7416 219.835 85.8018C219.9 85.8771 218.976 85.9373 217.777 85.9373C216.579 85.9523 213.015 85.9974 209.856 86.0576C204.154 86.1479 204.105 86.1479 204.057 86.4639C204.008 86.7499 203.927 86.78 203.295 86.7047C202.907 86.6746 202.324 86.6897 201.983 86.7499L201.384 86.8402L201.74 87.1712C202.145 87.5474 202.761 87.5775 215.331 87.6227L222.184 87.6528L222.086 88.029C222.038 88.2397 221.973 88.5256 221.957 88.661C221.924 88.9921 221.681 89.0222 221.681 88.6911C221.681 88.345 221.293 88.5256 221.228 88.9018C221.196 89.1426 221.293 89.278 221.584 89.3834C221.795 89.4586 222.07 89.6542 222.167 89.8348C222.265 90.0003 222.41 90.1057 222.508 90.0605C222.589 90.0003 222.653 90.0304 222.653 90.1207C222.653 90.3164 222.119 90.5872 221.698 90.5872C221.519 90.5872 221.276 90.7227 221.147 90.8882C220.92 91.2042 220.855 91.2042 215.429 91.0387C212.399 90.9484 207.896 90.828 205.418 90.7678L200.898 90.6625L200.525 88.2848C200.331 86.9906 200.104 85.7717 200.056 85.6062C199.942 85.3052 199.975 85.2902 200.558 85.3955C200.914 85.4406 205.353 85.546 210.455 85.5911ZM254.728 86.0727C254.404 86.2683 253.432 86.2683 253.432 86.0727C253.432 85.9824 253.772 85.9222 254.209 85.9222C254.76 85.9222 254.906 85.9673 254.728 86.0727ZM178.997 86.9004C178.948 87.2916 178.851 87.5625 178.802 87.5173C178.754 87.4722 178.77 87.1261 178.835 86.7499C178.883 86.3586 178.981 86.0877 179.029 86.1329C179.078 86.178 179.062 86.5241 178.997 86.9004ZM248.167 86.2232C248.118 86.2984 248.005 86.3737 247.908 86.3737C247.827 86.3737 247.762 86.2984 247.762 86.2232C247.762 86.1329 247.875 86.0727 248.021 86.0727C248.151 86.0727 248.216 86.1329 248.167 86.2232ZM251.326 86.2232C251.002 86.4188 250.516 86.4188 250.516 86.2232C250.516 86.1329 250.759 86.0727 251.05 86.0727C251.439 86.0727 251.504 86.1178 251.326 86.2232ZM122.672 86.5241C122.446 86.8552 122.284 86.8101 122.429 86.4489C122.494 86.3285 122.608 86.2232 122.705 86.2232C122.802 86.2232 122.802 86.3285 122.672 86.5241ZM124.827 86.494C124.649 86.795 124.001 87.3669 124.001 87.2164C124.001 87.1562 124.163 86.9154 124.357 86.6746C124.746 86.1931 125.086 86.0576 124.827 86.494ZM263.2 86.5542C263.135 86.6596 262.973 87.2615 262.827 87.8785L262.584 89.0071L261.45 89.0523L260.3 89.0974L260.365 88.044C260.43 87.0057 260.43 86.9906 259.992 86.8853C259.766 86.8251 258.794 86.8251 257.838 86.8552C255.57 86.9455 256.283 86.7047 258.761 86.5392C261.839 86.3436 263.346 86.3436 263.2 86.5542ZM218.571 86.9305C218.409 86.9605 218.118 86.9605 217.923 86.9305C217.713 86.9004 217.842 86.8703 218.199 86.8703C218.555 86.8552 218.717 86.8853 218.571 86.9305ZM221.73 86.9305C221.617 86.9605 221.39 86.9605 221.244 86.9305C221.082 86.8853 221.179 86.8552 221.438 86.8552C221.714 86.8552 221.827 86.8853 221.73 86.9305ZM254.242 86.9004C254.242 86.9455 254.096 87.111 253.902 87.2916C253.594 87.5775 253.545 87.5775 253.286 87.3669C252.93 87.0659 252.865 87.0659 252.557 87.3669C252.217 87.6678 252.233 88.4654 252.573 88.8115C252.913 89.1576 253.416 89.1576 253.561 88.8115C253.642 88.6159 253.691 88.646 253.756 89.0071C253.837 89.3683 253.918 89.4586 254.242 89.4285C254.469 89.4285 255.619 89.3382 256.817 89.2479C258.292 89.1275 259.053 89.1275 259.15 89.2178C259.247 89.3081 259.28 89.4285 259.215 89.4736C259.166 89.5338 257.255 89.6091 255.003 89.6542L250.889 89.7295L251.212 88.7814L251.553 87.8334L251.164 87.5474C250.84 87.3067 250.532 87.2766 248.799 87.2916C245.672 87.3217 246.013 87.0659 249.22 86.9756C250.775 86.9305 252.541 86.8703 253.156 86.8552C253.756 86.8402 254.242 86.8552 254.242 86.9004ZM108.239 87.4571C108.19 87.5625 108.158 87.4872 108.158 87.2766C108.158 87.0659 108.19 86.9906 108.239 87.0809C108.271 87.1863 108.271 87.3669 108.239 87.4571ZM245.899 87.111C245.802 87.2013 244.992 87.3067 244.069 87.3669C243.162 87.4271 242.287 87.5474 242.141 87.6528C241.752 87.9237 241.639 89.5489 241.995 89.8198C242.335 90.0906 242.967 89.9251 243.194 89.5037C243.372 89.1576 243.372 89.1576 243.372 89.5639L243.388 89.9853H246.515C248.232 89.9853 249.528 90.0455 249.414 90.1207C249.139 90.2712 243.777 90.3766 241.687 90.2712L240.732 90.211L240.699 89.0523C240.683 88.4203 240.618 87.8183 240.553 87.713C240.472 87.6076 240.197 87.5775 239.808 87.6377C239.452 87.6829 239.177 87.6979 239.177 87.6528C239.177 87.397 240.408 87.2164 242.902 87.1261C244.457 87.0659 245.802 87.0207 245.899 87.0057C245.996 86.9906 245.996 87.0207 245.899 87.111ZM237.476 87.5625C237.378 87.6377 236.601 87.728 235.726 87.7581C234.43 87.7882 234.203 87.7732 234.43 87.6076C234.754 87.397 237.719 87.3518 237.476 87.5625ZM172.809 88.2096C172.728 88.345 172.274 88.3751 172.274 88.2547C172.274 88.2096 172.371 88.044 172.469 87.8785C172.663 87.6076 172.679 87.5926 172.776 87.8484C172.841 87.9838 172.857 88.1494 172.809 88.2096ZM233.102 87.728C233.053 87.8033 232.794 87.8785 232.519 87.8785C232.26 87.8785 232.049 87.8033 232.049 87.728C232.049 87.6377 232.308 87.5775 232.632 87.5775C232.972 87.5775 233.167 87.6377 233.102 87.728ZM231.19 88.9469C231.288 89.5639 231.385 90.0756 231.385 90.1057C231.401 90.1207 231.757 90.1057 232.195 90.0455C232.891 89.9552 233.005 89.9853 233.167 90.2712C233.361 90.5872 233.426 90.5872 236.066 90.512C238.156 90.4518 238.674 90.4668 238.367 90.6023C238.124 90.7076 236.277 90.828 233.831 90.8882C231.563 90.9634 229.538 91.0688 229.344 91.1139C229.133 91.1741 228.971 91.1591 228.971 91.0688C228.971 90.8431 229.327 90.6324 229.927 90.512L230.478 90.4067L230.38 89.1576C230.283 87.9086 230.364 87.6829 230.834 87.7882C230.931 87.8033 231.077 88.33 231.19 88.9469ZM108.061 89.2028C107.85 89.3834 107.769 89.0673 107.899 88.5256L108.028 87.9537L108.093 88.5406C108.126 88.8567 108.109 89.1576 108.061 89.2028ZM186.319 89.9402C186.286 90.2562 186.254 90.0003 186.254 89.3834C186.254 88.7664 186.286 88.5105 186.319 88.8115C186.351 89.1275 186.351 89.6392 186.319 89.9402ZM172.08 88.962C172.242 89.1125 172.177 89.1877 171.756 89.3232C171.075 89.5338 171.027 89.7596 171.561 90.0906C171.95 90.3164 172.388 90.3615 174.38 90.3766C177.604 90.4067 178.446 90.4668 178.381 90.6474C178.219 91.0838 167.706 91.0838 150.324 90.6625C145.432 90.5421 139.552 90.4518 137.284 90.4819C135.016 90.4969 132.797 90.4518 132.343 90.3766L131.533 90.2261L132.424 90.1207C133.769 89.9552 138.758 89.9702 142.225 90.1508C143.926 90.2411 150.664 90.3314 157.209 90.3615L169.115 90.4217L169.958 90.0455C170.411 89.8499 170.994 89.4887 171.254 89.2479C171.788 88.7363 171.821 88.7212 172.08 88.962ZM140.103 91.6557C142.678 91.7309 144.93 91.8814 145.092 91.9566C145.27 92.0469 145.659 92.4984 145.983 92.9649C146.291 93.4314 146.987 94.2139 147.538 94.6955C148.073 95.162 148.478 95.5984 148.429 95.6285C148.38 95.6736 147.554 95.6435 146.582 95.5683C145.61 95.493 142.338 95.4028 139.309 95.3727L133.801 95.3275L133.753 95.7188C133.704 96.095 133.639 96.11 132.473 96.2154C130.983 96.3207 129.184 96.3358 129.184 96.2304C129.184 96.1853 129.46 95.6285 129.8 94.9814C130.156 94.3494 130.626 93.296 130.885 92.6489L131.339 91.4901H133.38C134.498 91.4901 137.527 91.5654 140.103 91.6557ZM185.395 92.1071C185.395 92.378 186.351 94.3042 187.015 95.3576C187.355 95.9144 187.615 96.396 187.598 96.426C187.566 96.4561 187.08 96.3659 186.513 96.2154C185.298 95.9294 183.856 95.8994 177.296 96.0649C172.987 96.1702 172.663 96.2003 172.339 96.4712C171.999 96.7571 171.95 96.7722 171.497 96.5464C171.059 96.3358 170.071 96.3057 164.272 96.3057C156.723 96.3057 156.998 96.3508 158.683 95.2523C159.752 94.56 160.076 94.1989 160.724 92.995L161.178 92.1673L173.035 92.0921C179.548 92.0469 184.942 91.9717 185.007 91.9115C185.136 91.7761 185.395 91.9115 185.395 92.1071ZM156.302 92.5285C156.399 92.6639 155.654 92.8445 155.038 92.8445C154.714 92.8295 154.714 92.8144 155.103 92.6188C155.557 92.378 156.172 92.3329 156.302 92.5285ZM229.846 93.1605C229.992 93.4615 230.656 94.229 231.32 94.861C231.984 95.5081 232.535 96.095 232.535 96.1853C232.535 96.2756 232.34 96.3057 232.017 96.2455C231.207 96.095 220.288 95.8091 214.635 95.794C210.601 95.779 209.403 95.8241 208.528 96.0197C207.653 96.2003 207.426 96.2154 207.426 96.0649C207.426 95.9595 207.685 95.2071 207.993 94.3945C208.317 93.5819 208.593 92.8445 208.625 92.7693C208.657 92.6639 212.318 92.6188 219.138 92.6188H229.587L229.846 93.1605ZM153.807 93.1304C153.807 93.2809 153.127 93.4765 153.013 93.3562C152.9 93.2659 153.337 92.995 153.613 92.995C153.71 92.995 153.807 93.0552 153.807 93.1304ZM202.728 93.311C202.728 93.3863 202.664 93.4464 202.566 93.4464C202.486 93.4464 202.405 93.3411 202.405 93.2057C202.405 93.0853 202.486 93.0251 202.566 93.0702C202.664 93.1154 202.728 93.2207 202.728 93.311ZM241.768 93.3712C241.768 93.4916 239.857 94.3494 238.739 94.7406C237.864 95.0416 237.719 95.0717 237.719 94.861C237.719 94.229 238.707 93.5668 239.258 93.8528C239.42 93.943 239.873 93.8829 240.602 93.6571C241.201 93.4615 241.704 93.311 241.736 93.311C241.752 93.296 241.768 93.3261 241.768 93.3712ZM148.542 93.7474C148.591 93.8227 148.575 93.8979 148.478 93.8979C148.397 93.8979 148.267 93.8227 148.218 93.7474C148.17 93.6571 148.186 93.5969 148.283 93.5969C148.364 93.5969 148.494 93.6571 148.542 93.7474ZM155.427 93.7474C155.103 93.943 154.892 93.943 155.022 93.7474C155.071 93.6571 155.249 93.5969 155.395 93.5969C155.638 93.5969 155.638 93.627 155.427 93.7474ZM202.599 94.3795C202.453 94.5149 202.356 94.5149 202.21 94.3795C202.064 94.244 202.097 94.1989 202.405 94.1989C202.712 94.1989 202.745 94.244 202.599 94.3795ZM235.71 94.5751C235.402 94.7858 234.803 94.8911 234.803 94.7256C234.803 94.6202 235.467 94.3644 235.775 94.3644C235.953 94.3644 235.937 94.4096 235.71 94.5751ZM154.05 94.9362C153.92 95.1319 153.321 95.162 153.321 94.9663C153.321 94.8911 153.483 94.8008 153.694 94.7707C154.131 94.6955 154.196 94.7256 154.05 94.9362ZM239.015 95.2523C239.015 95.3275 238.95 95.4028 238.853 95.4028C238.772 95.4028 238.691 95.3275 238.691 95.2523C238.691 95.162 238.772 95.1018 238.853 95.1018C238.95 95.1018 239.015 95.162 239.015 95.2523ZM102.65 96.0348C102.456 96.2154 101.937 96.1401 101.856 95.9144C101.824 95.8091 101.986 95.779 102.294 95.8241C102.634 95.8693 102.747 95.9445 102.65 96.0348ZM150.017 96.2304L150.486 96.5916L149.725 96.6066C148.98 96.6066 148.947 96.5916 148.947 96.1702C148.947 95.6435 149.271 95.6736 150.017 96.2304ZM113.99 96.2756C114.216 96.4862 113.747 96.5013 111.284 96.3508C109.162 96.2304 109.713 95.9896 112.046 96.0498C113.163 96.0649 113.86 96.1552 113.99 96.2756ZM136.636 96.2605C137.365 96.3358 137.446 96.3809 137.122 96.4712C136.895 96.5314 136.296 96.5765 135.761 96.5916C134.935 96.6066 134.838 96.5765 135.016 96.3809C135.243 96.1251 135.389 96.11 136.636 96.2605ZM83.8592 96.5464C85.8193 96.727 84.8312 96.9076 81.9315 96.9076C80.3602 96.9076 79.1129 96.8775 79.1615 96.8324C79.4369 96.5615 82.1745 96.411 83.8592 96.5464ZM117.796 96.8474C117.748 96.8926 117.602 96.9076 117.489 96.8625C117.359 96.8173 117.408 96.7722 117.586 96.7722C117.764 96.7571 117.861 96.8023 117.796 96.8474ZM128.65 97.0581C128.698 97.2236 128.731 97.4042 128.715 97.4644C128.698 97.5998 127.079 97.7804 127.079 97.645C127.079 97.5998 127.338 97.4343 127.646 97.2688C127.953 97.1183 128.212 96.9377 128.212 96.8775C128.212 96.6217 128.569 96.7722 128.65 97.0581ZM207.086 97.3139C207.297 97.7503 207.135 97.961 206.568 97.961C206.406 97.961 206.13 98.2018 205.952 98.4877C205.758 98.7736 205.547 99.0144 205.466 99.0144C205.158 99.0144 205.337 98.6081 205.968 97.9008C206.325 97.5095 206.616 97.1183 206.616 97.043C206.616 96.7571 206.892 96.9227 207.086 97.3139ZM181.913 97.2086C181.653 97.2688 181.248 97.329 181.022 97.344C180.698 97.344 180.665 97.329 180.86 97.2086C180.989 97.1333 181.394 97.0731 181.751 97.0731C182.382 97.0882 182.382 97.1032 181.913 97.2086ZM144.152 97.3139C144.979 97.3741 145.335 97.4493 145.173 97.5396C144.736 97.7503 143.099 97.8256 141.415 97.6901C139.908 97.5697 139.827 97.5547 140.362 97.4042C141.026 97.2086 142.419 97.1634 144.152 97.3139ZM188.781 97.7202C188.959 97.8707 189.073 98.0663 189.024 98.1265C188.894 98.3372 188.36 98.277 188.084 98.0362C187.955 97.9159 187.566 97.8105 187.21 97.8105C186.546 97.8105 185.557 97.5547 185.557 97.3892C185.557 97.329 186.205 97.3139 186.999 97.3591C188.101 97.4193 188.522 97.4945 188.781 97.7202ZM256.088 97.3591C255.975 97.4644 255.781 97.4644 255.521 97.3741C255.149 97.2387 255.165 97.2236 255.7 97.2236C256.072 97.2086 256.202 97.2537 256.088 97.3591ZM130.561 97.5095C130.124 97.6901 129.994 97.6901 129.994 97.5095C129.994 97.4193 130.189 97.3591 130.448 97.3741C130.837 97.3741 130.853 97.3892 130.561 97.5095ZM133.72 97.5095C133.996 97.5848 133.639 97.6299 132.667 97.6299C131.711 97.6299 131.323 97.5998 131.533 97.5095C131.938 97.344 133.186 97.344 133.72 97.5095ZM139.147 97.5095C139.098 97.5848 138.936 97.66 138.807 97.66C138.677 97.66 138.58 97.5848 138.58 97.5095C138.58 97.4193 138.726 97.3591 138.92 97.3591C139.098 97.3591 139.195 97.4193 139.147 97.5095ZM251.65 97.5095C251.65 97.6751 251.212 97.8105 250.662 97.8105C250.143 97.8105 250.014 97.5697 250.484 97.4644C250.937 97.3591 251.65 97.3892 251.65 97.5095ZM119.87 99.4658C120.097 99.5561 119.87 99.6013 119.141 99.5862C118.38 99.5862 118.201 99.5561 118.493 99.4658C119.028 99.3003 119.465 99.3003 119.87 99.4658ZM122.705 99.4658C122.705 99.5411 122.413 99.6163 122.057 99.6163C121.7 99.6163 121.409 99.5411 121.409 99.4658C121.409 99.3756 121.7 99.3154 122.057 99.3154C122.413 99.3154 122.705 99.3756 122.705 99.4658ZM173.975 99.9173C173.926 99.9925 173.359 100.068 172.744 100.068C172.031 100.068 171.642 100.008 171.707 99.9173C171.756 99.827 172.323 99.7668 172.938 99.7668C173.651 99.7668 174.04 99.827 173.975 99.9173ZM178.025 100.083C178.138 100.188 177.814 100.203 177.053 100.128C175.32 99.9624 174.882 99.7518 176.486 99.8421C177.247 99.8872 177.928 99.9925 178.025 100.083Z" fill="black"/>
</g>
<path d="M174.267 51.8674C173.651 51.9126 173.198 52.0029 173.084 52.1383C172.906 52.3339 173.036 52.364 173.959 52.364C175.06 52.364 175.757 52.1684 175.595 51.8975C175.53 51.8223 175.449 51.7771 175.384 51.7922C175.32 51.8072 174.817 51.8373 174.267 51.8674Z" fill="black"/>
<path d="M178.511 51.9126C178.559 51.9878 178.754 52.063 178.932 52.063C179.094 52.063 179.24 51.9878 179.24 51.9126C179.24 51.8223 179.045 51.7621 178.819 51.7621C178.592 51.7621 178.446 51.8223 178.511 51.9126Z" fill="black"/>
<path d="M179.645 51.9126C179.693 51.9878 179.888 52.063 180.066 52.063C180.228 52.063 180.374 51.9878 180.374 51.9126C180.374 51.8223 180.179 51.7621 179.953 51.7621C179.726 51.7621 179.58 51.8223 179.645 51.9126Z" fill="black"/>
<path d="M191.049 54.7567C190.693 55.0276 190.676 55.0577 190.952 55.163C191.114 55.2082 191.924 55.1931 192.734 55.1179L194.224 54.9824L193.625 54.7266C192.798 54.3805 191.535 54.3956 191.049 54.7567Z" fill="black"/>
<path d="M173.505 54.7267C173.441 54.8019 172.112 54.8771 170.557 54.9223C167.965 54.9975 167.722 55.0276 167.398 55.3136L167.058 55.6446L167.625 55.8102C168.079 55.9606 168.548 55.9456 169.893 55.765C170.832 55.6296 171.966 55.5242 172.42 55.5242C173.716 55.5242 174.866 54.9825 174.121 54.7116C173.781 54.5912 173.651 54.5912 173.505 54.7267Z" fill="black"/>
<path d="M191.729 55.6597L191.017 55.75L191.681 56.4723C192.053 56.8786 192.361 57.2699 192.361 57.3602C192.361 57.4655 192.847 57.4805 193.868 57.4053C195.18 57.315 195.326 57.3301 195.05 57.5257C194.759 57.7213 194.759 57.7364 195.18 57.8417C195.407 57.8869 196.168 57.9019 196.864 57.8568C198.241 57.7514 198.808 57.917 199.084 58.5038C199.197 58.7296 199.375 58.8349 199.683 58.8349C200.25 58.8349 200.25 58.7296 199.716 58.0072C199.489 57.6912 199.23 57.2699 199.149 57.0742C199.051 56.8485 198.873 56.7281 198.614 56.7281C198.063 56.7281 197.95 56.9689 198.387 57.2398C198.744 57.4655 198.727 57.4805 197.95 57.4655C197.237 57.4655 197.188 57.4354 197.545 57.315C197.95 57.1645 197.95 57.1495 197.626 56.9388C197.415 56.7883 196.962 56.7281 196.2 56.7432C195.601 56.7582 195.066 56.7281 195.002 56.6679C194.953 56.6228 195.05 56.5776 195.245 56.5776C195.666 56.5776 195.876 56.2917 195.585 56.1112C195.455 56.0359 194.71 55.9908 193.9 56.0058C192.588 56.051 192.442 56.0209 192.491 55.7801C192.523 55.6447 192.523 55.5393 192.491 55.5544C192.458 55.5544 192.118 55.6146 191.729 55.6597ZM194.629 56.7281C194.629 56.9087 194.499 56.9087 194.062 56.7281C193.77 56.6077 193.787 56.5927 194.192 56.5927C194.435 56.5776 194.629 56.6378 194.629 56.7281ZM196.702 57.4354C196.54 57.4655 196.249 57.4655 196.055 57.4354C195.844 57.4053 195.974 57.3752 196.33 57.3752C196.686 57.3602 196.848 57.3903 196.702 57.4354Z" fill="black"/>
<path d="M170.654 56.066C170.071 56.1864 169.455 56.2616 169.294 56.2165C169.115 56.1713 168.808 56.2616 168.613 56.4121C168.403 56.5626 167.949 56.7432 167.625 56.7883C166.637 56.9539 166.102 57.1946 166.151 57.4655C166.199 57.6461 166.394 57.7063 166.88 57.6912C167.641 57.6762 167.738 57.8116 167.738 59.0155C167.738 59.5873 167.803 59.7378 168.062 59.8131C168.241 59.8582 168.451 59.8582 168.548 59.8131C168.759 59.6927 168.759 59.9334 168.548 60.1291C168.451 60.2194 168.419 60.415 168.484 60.5504C168.597 60.8213 168.889 60.8364 170.168 60.5805C170.541 60.5053 170.525 60.5053 170.12 60.6708C169.763 60.8213 169.682 60.9417 169.715 61.2427C169.763 61.649 170.055 61.6941 171.059 61.4684C171.529 61.3781 171.561 61.3931 171.545 61.7994C171.545 62.1305 171.61 62.2208 171.869 62.2058C172.209 62.1757 175.401 61.5286 175.482 61.4684C175.498 61.4533 175.401 61.2276 175.239 60.9868C174.979 60.5504 174.898 60.5203 173.716 60.4451C172.29 60.3548 171.853 60.2043 172.42 60.0087C172.955 59.8281 172.744 59.5271 172.015 59.4218C171.675 59.3767 171.497 59.3165 171.642 59.3014C171.788 59.3014 171.95 59.1509 171.999 58.9854C172.064 58.7296 171.999 58.6844 171.61 58.6844C171.351 58.6844 171.14 58.6092 171.14 58.5339C171.14 58.4437 171.221 58.3835 171.318 58.3835C171.416 58.3835 171.934 58.1276 172.469 57.8267C173.165 57.4354 173.635 57.2548 174.072 57.2548C174.607 57.2548 174.704 57.2097 174.704 56.9388C174.704 56.5325 174.429 56.4272 173.392 56.4272C172.89 56.4272 172.614 56.367 172.679 56.2767C172.776 56.1413 172.096 55.7951 171.821 55.8403C171.756 55.8553 171.237 55.9456 170.654 56.066ZM171.383 57.1796C171.659 57.2849 171.61 57.315 171.173 57.315C170.849 57.3301 170.67 57.2699 170.735 57.1796C170.849 56.999 170.946 56.999 171.383 57.1796ZM171.594 60.4451C171.432 60.4752 171.173 60.4752 171.027 60.4451C170.865 60.3999 170.994 60.3699 171.302 60.3699C171.61 60.3699 171.74 60.3999 171.594 60.4451Z" fill="black"/>
<path d="M196.346 56.1111C196.638 56.397 197.302 56.4422 197.626 56.2165C197.934 56.0058 197.885 55.9908 197.075 55.9757C196.524 55.9757 196.249 56.0359 196.346 56.1111Z" fill="black"/>
<path d="M174.736 57.9621C174.785 58.0674 174.979 58.2329 175.174 58.3383L175.546 58.5038L175.206 58.6844C174.753 58.8951 174.915 59.1359 175.53 59.1359C175.919 59.1359 176 59.0757 176 58.7898C176 58.2781 175.546 57.7815 175.093 57.7815C174.834 57.7815 174.704 57.8567 174.736 57.9621Z" fill="black"/>
<path d="M195.925 58.1878C195.795 58.233 195.585 58.3383 195.471 58.4286C195.18 58.6543 195.601 58.8048 196.492 58.8198C197.253 58.8349 197.707 58.6242 197.448 58.3834C197.237 58.1878 196.265 58.0524 195.925 58.1878Z" fill="black"/>
<path d="M173.521 58.9251C173.635 59.196 174.396 59.1659 174.51 58.865C174.542 58.7446 174.38 58.6844 173.991 58.6844C173.538 58.6844 173.44 58.7296 173.521 58.9251Z" fill="black"/>
<path d="M198.047 59.2713C197.642 59.5121 198.031 59.7378 198.841 59.7378C199.651 59.7378 200.039 59.5121 199.634 59.2713C199.505 59.1961 199.149 59.1359 198.841 59.1359C198.533 59.1359 198.177 59.1961 198.047 59.2713Z" fill="black"/>
<path d="M200.056 59.2863C199.894 59.5271 200.12 59.7378 200.509 59.7378C200.882 59.7378 201.4 59.497 201.271 59.3917C201.076 59.2412 200.137 59.1659 200.056 59.2863Z" fill="black"/>
<path d="M254.76 75.8397C254.08 75.9902 254.031 76.0504 254.161 76.4417C254.307 76.8931 254.89 77.1941 255.797 77.2844C256.963 77.3897 257.109 77.2392 256.639 76.3965C256.234 75.6441 255.991 75.5688 254.76 75.8397Z" fill="black"/>
<path d="M112.013 71.4756C111.884 71.5509 111.544 71.6261 111.268 71.6261C110.782 71.6261 110.734 71.6863 110.151 72.9203C109.827 73.6426 109.519 74.5907 109.47 75.0421L109.373 75.8848L110.005 75.7945C110.345 75.7343 111.997 75.6591 113.666 75.5989L116.679 75.4936L116.954 74.8766C118.056 72.3785 118.299 71.6261 118.072 71.4606C117.926 71.3402 117.602 71.3251 117.149 71.4004C116.776 71.4606 115.966 71.5057 115.35 71.4907C114.735 71.4606 114.022 71.5358 113.763 71.6412C113.342 71.8067 113.245 71.7916 113.115 71.581C112.953 71.295 112.386 71.2499 112.013 71.4756Z" fill="black"/>
<path d="M192.717 81.513C192.037 81.6334 190.838 83.5295 190.32 85.3203C189.332 88.7814 190.903 93.4464 193.252 93.9882C193.673 94.0785 193.689 94.0785 193.495 93.7474C193.382 93.5518 192.977 92.995 192.588 92.4984C192.183 92.0018 191.875 91.445 191.875 91.2193C191.875 91.0086 191.697 90.5571 191.47 90.211C190.968 89.4135 190.806 88.029 191.049 86.5091C191.292 84.8387 191.778 83.7552 192.717 82.8072C193.706 81.7989 193.706 81.3475 192.717 81.513Z" fill="black"/>
<path d="M194.921 94.1537C193.965 94.1988 193.657 94.259 193.657 94.4246C193.657 94.9814 195.309 95.3426 196.103 94.9513C196.395 94.8008 196.573 94.0032 196.297 94.0784C196.216 94.0935 195.601 94.1386 194.921 94.1537Z" fill="black"/>
<path d="M115.917 83.3338C115.561 83.6799 115.172 84.3119 114.929 84.944C114.573 85.862 114.524 86.2532 114.524 87.8785C114.524 89.7294 114.54 89.7896 115.091 90.813C115.496 91.5804 115.853 91.9867 116.339 92.3028C116.727 92.5435 117.068 92.7091 117.116 92.6639C117.181 92.6188 116.841 91.8814 116.371 91.0236C115.61 89.6091 115.512 89.3382 115.448 88.2396C115.367 86.8251 115.593 85.9372 116.549 84.026C117.149 82.8221 117.165 82.7619 116.841 82.7619C116.646 82.7619 116.241 83.0178 115.917 83.3338Z" fill="black"/>
<path d="M122.105 84.5678C121.506 84.9741 120.923 85.8319 121.117 85.9974C121.296 86.163 122.316 85.3503 122.608 84.8236C122.77 84.5076 122.867 84.2217 122.834 84.1916C122.802 84.1464 122.462 84.327 122.105 84.5678Z" fill="black"/>
<path d="M116.922 84.4926C116.387 84.8387 115.901 86.2232 115.901 87.397C115.901 88.646 116.128 89.4135 116.63 89.9402L117.019 90.3615L117.035 89.9853C117.035 89.7746 116.922 89.0072 116.792 88.2698C116.533 86.8251 116.565 86.5392 117.051 85.4256C117.473 84.4926 117.424 84.1615 116.922 84.4926Z" fill="black"/>
<path d="M117.829 87.2615C117.586 87.9989 117.764 89.0824 118.185 89.594C118.542 90.0154 119.222 90.1057 119.789 89.8348C120.372 89.5489 120.664 87.6378 120.194 87.2766C120 87.1261 119.935 87.1562 119.789 87.5023C119.708 87.713 119.627 88.0742 119.627 88.2999C119.627 88.7062 119.384 89.2178 119.254 89.0824C119.092 88.9018 118.655 87.4722 118.655 87.096C118.655 86.78 118.574 86.6747 118.331 86.6747C118.104 86.6747 117.975 86.8402 117.829 87.2615Z" fill="black"/>
<path d="M219.252 88.4052C219.171 88.6159 219.09 89.1727 219.09 89.6091C219.09 90.4217 219.09 90.4217 219.657 90.5271C220.434 90.6625 220.71 90.5271 220.71 90.0304C220.71 89.8047 220.758 89.3683 220.791 89.0824C220.904 88.4052 220.774 88.2246 220.029 88.1042C219.478 87.9989 219.397 88.029 219.252 88.4052Z" fill="black"/>
<path d="M216.563 75.8548C215.672 76.2611 214.505 77.3596 214.651 77.6907C214.781 78.0217 215.299 78.0217 215.429 77.7057C215.51 77.495 215.785 77.48 217.713 77.5703C219.187 77.6455 219.9 77.6305 219.9 77.5251C219.9 77.1188 219.64 76.8479 218.911 76.5169C218.474 76.3062 218.053 76.0052 217.956 75.8397C217.745 75.4635 217.421 75.4635 216.563 75.8548Z" fill="black"/>
<path d="M209.208 77.2994C208.641 77.48 207.297 77.5552 203.215 77.6455C200.315 77.7057 197.934 77.7659 197.917 77.7809C197.885 77.7809 197.869 77.9164 197.869 78.0819C197.869 78.2474 198.063 78.428 198.371 78.5484C198.646 78.6688 198.825 78.8193 198.776 78.9397C198.727 79.06 198.922 79.1654 199.343 79.2256C199.699 79.2858 204.608 79.2557 210.229 79.1654C215.866 79.0751 224.711 78.9697 229.894 78.9547C235.078 78.9397 239.371 78.8644 239.452 78.8042C239.517 78.729 239.436 78.5634 239.258 78.4431C238.966 78.2324 237.589 78.2173 227.189 78.3076C215.931 78.3979 209.111 78.3227 209.775 78.097C209.953 78.0368 210.504 78.0217 210.99 78.0518C212.059 78.1421 212.659 77.8411 212.351 77.3897C212.108 77.0285 210.229 76.9683 209.208 77.2994ZM208.965 78.3979C209.03 78.4882 208.836 78.5484 208.495 78.5484C208.171 78.5484 207.912 78.4732 207.912 78.3979C207.912 78.3076 208.123 78.2474 208.382 78.2474C208.657 78.2474 208.917 78.3076 208.965 78.3979Z" fill="black"/>
<path d="M214.602 79.6018C213.841 79.8877 214.165 80.0984 215.574 80.294C215.996 80.3392 216.336 80.4445 216.336 80.5047C216.336 80.58 216.19 80.595 216.012 80.5499C215.834 80.5047 215.51 80.5198 215.283 80.5649C214.959 80.6402 214.862 80.7455 214.91 81.0013C214.943 81.2571 215.088 81.3474 215.493 81.3775C215.785 81.4076 216.077 81.528 216.125 81.6484C216.174 81.7989 216.465 81.8591 217.049 81.844C218.215 81.829 218.474 81.6935 218.685 81.0164C218.847 80.4445 218.863 80.4295 219.705 80.3843C220.467 80.3392 220.548 80.3091 220.548 79.9931C220.548 79.5115 220.094 79.4213 218.361 79.6169C217.405 79.7072 216.644 79.7072 216.044 79.6018C215.007 79.4213 215.072 79.4213 214.602 79.6018Z" fill="black"/>
<path d="M251.212 80.0532C250.807 80.279 250.678 80.4596 250.678 80.7906C250.678 81.0314 250.791 81.3173 250.937 81.4227C251.164 81.5882 251.229 81.5731 251.423 81.3324C251.553 81.1819 251.65 80.9863 251.65 80.911C251.65 80.7756 251.958 80.8057 252.751 81.0314C253.075 81.1367 253.108 81.0916 253.108 80.5348C253.108 80.1285 253.027 79.9028 252.849 79.8426C252.379 79.677 251.731 79.7523 251.212 80.0532Z" fill="black"/>
<path d="M222.751 80.4445C222.702 80.58 222.653 80.8659 222.653 81.1067C222.653 81.9343 222.767 82.0096 223.949 82.0096C224.549 82.0096 225.262 81.9343 225.553 81.844C226.007 81.6936 226.055 81.6183 226.055 81.0916C226.055 80.3392 225.78 80.2038 224.144 80.2038C223.107 80.2038 222.832 80.2489 222.751 80.4445Z" fill="black"/>
<path d="M226.962 80.58C226.817 80.9411 226.849 81.9042 227.011 82.145C227.108 82.2955 227.448 82.3256 228.307 82.2804C229.749 82.2052 230.348 81.8591 230.348 81.0916C230.348 80.6101 230.316 80.58 229.781 80.5649C229.473 80.5649 228.728 80.5047 228.145 80.4445C227.222 80.3542 227.06 80.3693 226.962 80.58Z" fill="black"/>
<path d="M249.026 80.595C248.783 80.8207 248.653 80.8358 248.102 80.6853C247.082 80.3843 246.628 80.7756 247.179 81.4829C247.357 81.7086 247.665 81.7839 248.54 81.829C249.657 81.8892 249.69 81.8741 249.787 81.513C250.046 80.595 249.593 80.0683 249.026 80.595Z" fill="black"/>
<path d="M212.578 80.9712C212.076 81.2421 212.221 81.5581 212.853 81.5581C213.307 81.5581 213.42 81.4979 213.42 81.2722C213.42 81.1217 213.307 80.9412 213.161 80.896C212.853 80.7907 212.918 80.7756 212.578 80.9712Z" fill="black"/>
<path d="M212.286 82.115C212.286 82.5664 212.545 82.8072 212.902 82.7019C213.307 82.5815 213.501 82.1451 213.226 81.9795C212.837 81.7538 212.286 81.8441 212.286 82.115Z" fill="black"/>
<path d="M212.48 83.093C212.367 83.1984 212.286 83.4091 212.286 83.5596C212.286 83.8154 212.367 83.8455 212.804 83.7552C213.436 83.6348 213.663 83.4542 213.533 83.1532C213.42 82.8673 212.756 82.8372 212.48 83.093Z" fill="black"/>
<path d="M223.528 83.0179C223.123 83.0931 222.702 83.4843 222.654 83.8154C222.492 84.8688 222.88 85.1697 224.452 85.1697C225.618 85.1697 225.991 85.0192 226.104 84.4625C226.153 84.2367 226.25 83.9207 226.298 83.7703C226.396 83.5746 226.282 83.4693 225.877 83.3038C225.245 83.063 224.03 82.9125 223.528 83.0179Z" fill="black"/>
<path d="M248.086 83.1984C247.746 83.2887 247.665 83.4091 247.633 83.9358L247.584 84.5678H248.443C249.528 84.5678 250.111 84.2969 250.111 83.8154C250.111 83.2135 249.172 82.9125 248.086 83.1984Z" fill="black"/>
<path d="M227.546 83.4843C227.465 83.7101 227.627 84.9591 227.772 85.1848C227.886 85.3654 229.068 85.3504 229.83 85.1547C230.559 84.9742 230.964 84.4625 230.883 83.8154L230.834 83.3338L229.23 83.3188C228.048 83.2887 227.61 83.3338 227.546 83.4843Z" fill="black"/>
<path d="M232.94 83.3037C231.855 83.5596 231.725 83.6799 231.725 84.3722C231.725 84.9892 231.774 85.0494 232.292 85.26C233.183 85.6062 234.479 85.4858 234.479 85.0644C234.479 84.944 234.641 84.5829 234.835 84.2668C235.094 83.8455 235.159 83.6348 235.03 83.5144C234.835 83.3338 233.426 83.1984 232.94 83.3037Z" fill="black"/>
<path d="M245.122 83.7853C244.571 84.3571 244.765 84.5678 245.818 84.5678C246.725 84.5678 246.79 84.5377 246.79 84.2217C246.79 84.0261 246.709 83.8004 246.596 83.695C246.304 83.4242 245.413 83.4844 245.122 83.7853Z" fill="black"/>
<path d="M242.562 83.981C242.384 84.1465 242.254 84.3572 242.303 84.4625C242.384 84.6882 243.097 84.8538 243.615 84.7635C243.972 84.6882 244.036 84.5979 244.036 84.1766C244.036 83.695 244.004 83.6649 243.469 83.6649C243.113 83.6649 242.773 83.7853 242.562 83.981Z" fill="black"/>
<g filter="url(#filter7_d_6_10)">
<path d="M28.6707 94.2664C22.5972 94.5483 18.0334 93.7992 14.9791 92.019C11.985 90.172 10.3292 86.5652 10.0116 81.1986C9.94737 80.1125 9.9338 78.7998 9.97093 77.2606C10.072 75.7183 10.2181 73.8537 10.4092 71.6667C10.7354 68.5124 10.9545 65.7155 11.0666 63.2759C11.1749 60.7723 11.1421 58.0512 10.9682 55.1123C10.8548 53.1956 10.6812 51.3459 10.4475 49.5629C10.2777 47.777 10.0177 46.0914 9.66746 44.5061C8.71983 44.7422 8.08619 44.8677 7.76654 44.8826C7.25509 44.9063 6.8978 44.8268 6.69466 44.644C6.48775 44.3974 6.36538 43.9546 6.32758 43.3157C6.24819 41.9741 6.33052 40.657 6.57456 39.3644C6.81483 38.0079 7.19808 36.901 7.72431 36.0437C8.72041 34.46 10.3297 33.4884 12.5522 33.129C14.267 32.8572 16.3654 32.5676 18.8473 32.2602C21.3932 31.9499 23.9749 31.7019 26.5923 31.5163C29.2698 31.2639 31.6635 31.0888 33.7732 30.9908C39.6549 30.7178 43.1467 30.6839 44.2486 30.889C45.926 31.0674 46.81 31.9233 46.9007 33.4566C47.0141 35.3732 46.4468 37.1613 45.1988 38.8208C44.5522 39.8118 43.8906 40.5472 43.2138 41.0271C42.5332 41.443 41.5518 41.6488 40.2694 41.6442C37.445 41.5831 34.9761 41.5696 32.8626 41.6036C30.7491 41.6377 29.2768 41.674 28.4457 41.7125C26.9753 41.7808 25.4428 41.884 23.8483 42.022C22.3178 42.1571 20.7571 42.3257 19.1664 42.5276C19.2987 44.7637 19.3446 47.164 19.304 49.7284C19.2634 52.2928 19.1665 54.988 19.0132 57.8139C21.9427 57.4858 25.2595 57.2037 28.9638 56.9677C32.6642 56.6678 35.9529 56.4511 38.8298 56.3176C40.1084 56.2582 40.979 56.3459 41.4417 56.5807C41.9683 56.8125 42.2637 57.4715 42.3279 58.5576C42.3884 59.5798 42.1688 60.7431 41.669 62.0476C41.2294 63.2852 40.5885 64.372 39.7464 65.308C39.3855 65.7091 38.9889 66.0479 38.5565 66.3242C38.1203 66.5366 37.5167 66.6287 36.7458 66.6004C33.9892 66.6002 30.8509 66.6498 27.3309 66.7491C23.8748 66.8455 20.8381 66.9864 18.2207 67.172C18.0519 68.6533 17.9395 70.0039 17.8835 71.2237C17.8274 72.4435 17.8278 73.5325 17.8845 74.4909C18.0924 78.0047 19.133 80.4229 21.0062 81.7453C22.8795 83.0678 25.8619 83.634 29.9535 83.4441C32.4468 83.3284 34.831 82.9935 37.1061 82.4395C39.4451 81.8825 41.7933 80.9406 44.1509 79.614C45.0157 79.0613 45.6718 78.7746 46.1194 78.7539C46.8226 78.7212 47.5241 79.2012 48.2239 80.1937C48.9839 81.1194 49.3979 82.1572 49.4659 83.3072C49.5491 84.7128 49.0851 86.0796 48.0738 87.4078C47.1228 88.6692 45.8106 89.7872 44.1374 90.7617C42.2085 91.7481 39.8827 92.5288 37.1601 93.1036C34.4413 93.7423 31.6115 94.1299 28.6707 94.2664ZM72.4843 92.2327C69.3516 92.3781 66.4163 92.0659 63.6783 91.2961C61.0004 90.4595 58.8132 89.2477 57.1166 87.6608C55.42 86.0739 54.5056 84.1624 54.3733 81.9263C54.2863 80.4569 54.5623 79.1628 55.2013 78.044C55.8365 76.8614 56.7614 76.2419 57.9761 76.1855C58.7433 76.1499 59.5594 76.4003 60.4246 76.9367C62.106 78.2681 64.2255 79.419 66.7831 80.3893C69.4009 81.2928 72.1482 81.6778 75.0251 81.5443C78.797 81.3692 81.8222 80.4921 84.1007 78.9128C86.4394 77.2668 87.5331 75.166 87.3819 72.6104C87.2382 70.1827 86.0155 68.4777 83.7136 67.4954C81.4118 66.5132 78.2506 65.6349 74.2302 64.8606C71.2478 64.2943 68.3499 63.5319 65.5366 62.5734C62.7872 61.6119 60.4608 60.2144 58.5573 58.3809C56.7139 56.4804 55.6959 53.9011 55.5031 50.6428C55.3556 48.1511 55.7535 45.6662 56.6967 43.188C57.6361 40.6459 59.1001 38.3037 61.0889 36.1614C63.0776 34.019 65.5385 32.2712 68.4714 30.9178C71.4006 29.5006 74.7511 28.7044 78.5231 28.5294C81.336 28.3988 83.9122 28.5995 86.2515 29.1316C88.6548 29.6607 90.5617 30.4691 91.9723 31.5567C93.4468 32.6414 94.2333 34.0143 94.3315 35.6754C94.4072 36.9532 94.1217 38.0876 93.4752 39.0785C92.8286 40.0695 92.0429 40.8747 91.1179 41.4942C90.1892 42.0499 89.3732 42.344 88.67 42.3766C88.0307 42.4063 87.1506 42.1589 86.0297 41.6343C84.183 40.7591 82.1256 40.1178 79.8578 39.7106C77.6501 39.2365 75.7152 39.038 74.053 39.1152C70.9203 39.2606 68.4047 40.082 66.506 41.5796C64.6674 43.0102 63.803 44.652 63.9126 46.5047C64.0336 48.5491 65.3504 50.2177 67.8629 51.5105C70.4356 52.7365 74.9639 53.9677 81.4477 55.2043C85.8631 56.1525 89.346 57.5924 91.8963 59.5241C94.4429 61.3919 95.8447 64.4979 96.1018 68.8423C96.3324 72.7395 95.4931 76.4301 93.5837 79.9141C91.7383 83.3952 88.9919 86.2774 85.3448 88.5608C81.7577 90.7773 77.4709 92.0013 72.4843 92.2327Z" fill="black"/>
</g>
<defs>
<filter id="filter0_d_6_10" x="85.7934" y="37.1145" width="31.2424" height="32.3654" filterUnits="userSpaceOnUse" color-interpolation-filters="sRGB">
<feFlood flood-opacity="0" result="BackgroundImageFix"/>
<feColorMatrix in="SourceAlpha" type="matrix" values="0 0 0 0 0 0 0 0 0 0 0 0 0 0 0 0 0 0 127 0" result="hardAlpha"/>
<feOffset dy="4"/>
<feGaussianBlur stdDeviation="2"/>
<feComposite in2="hardAlpha" operator="out"/>
<feColorMatrix type="matrix" values="0 0 0 0 0 0 0 0 0 0 0 0 0 0 0 0 0 0 0.25 0"/>
<feBlend mode="normal" in2="BackgroundImageFix" result="effect1_dropShadow_6_10"/>
<feBlend mode="normal" in="SourceGraphic" in2="effect1_dropShadow_6_10" result="shape"/>
</filter>
<filter id="filter1_d_6_10" x="109.237" y="29.7464" width="31.8807" height="39.8292" filterUnits="userSpaceOnUse" color-interpolation-filters="sRGB">
<feFlood flood-opacity="0" result="BackgroundImageFix"/>
<feColorMatrix in="SourceAlpha" type="matrix" values="0 0 0 0 0 0 0 0 0 0 0 0 0 0 0 0 0 0 127 0" result="hardAlpha"/>
<feOffset dy="4"/>
<feGaussianBlur stdDeviation="2"/>
<feComposite in2="hardAlpha" operator="out"/>
<feColorMatrix type="matrix" values="0 0 0 0 0 0 0 0 0 0 0 0 0 0 0 0 0 0 0.25 0"/>
<feBlend mode="normal" in2="BackgroundImageFix" result="effect1_dropShadow_6_10"/>
<feBlend mode="normal" in="SourceGraphic" in2="effect1_dropShadow_6_10" result="shape"/>
</filter>
<filter id="filter2_d_6_10" x="131.707" y="25.7785" width="29.2183" height="30.3917" filterUnits="userSpaceOnUse" color-interpolation-filters="sRGB">
<feFlood flood-opacity="0" result="BackgroundImageFix"/>
<feColorMatrix in="SourceAlpha" type="matrix" values="0 0 0 0 0 0 0 0 0 0 0 0 0 0 0 0 0 0 127 0" result="hardAlpha"/>
<feOffset dy="4"/>
<feGaussianBlur stdDeviation="2"/>
<feComposite in2="hardAlpha" operator="out"/>
<feColorMatrix type="matrix" values="0 0 0 0 0 0 0 0 0 0 0 0 0 0 0 0 0 0 0.25 0"/>
<feBlend mode="normal" in2="BackgroundImageFix" result="effect1_dropShadow_6_10"/>
<feBlend mode="normal" in="SourceGraphic" in2="effect1_dropShadow_6_10" result="shape"/>
</filter>
<filter id="filter3_d_6_10" x="156.481" y="24.1998" width="28.0704" height="28.2448" filterUnits="userSpaceOnUse" color-interpolation-filters="sRGB">
<feFlood flood-opacity="0" result="BackgroundImageFix"/>
<feColorMatrix in="SourceAlpha" type="matrix" values="0 0 0 0 0 0 0 0 0 0 0 0 0 0 0 0 0 0 127 0" result="hardAlpha"/>
<feOffset dy="4"/>
<feGaussianBlur stdDeviation="2"/>
<feComposite in2="hardAlpha" operator="out"/>
<feColorMatrix type="matrix" values="0 0 0 0 0 0 0 0 0 0 0 0 0 0 0 0 0 0 0.25 0"/>
<feBlend mode="normal" in2="BackgroundImageFix" result="effect1_dropShadow_6_10"/>
<feBlend mode="normal" in="SourceGraphic" in2="effect1_dropShadow_6_10" result="shape"/>
</filter>
<filter id="filter4_d_6_10" x="178.22" y="23.0022" width="26.4385" height="29.1851" filterUnits="userSpaceOnUse" color-interpolation-filters="sRGB">
<feFlood flood-opacity="0" result="BackgroundImageFix"/>
<feColorMatrix in="SourceAlpha" type="matrix" values="0 0 0 0 0 0 0 0 0 0 0 0 0 0 0 0 0 0 127 0" result="hardAlpha"/>
<feOffset dy="4"/>
<feGaussianBlur stdDeviation="2"/>
<feComposite in2="hardAlpha" operator="out"/>
<feColorMatrix type="matrix" values="0 0 0 0 0 0 0 0 0 0 0 0 0 0 0 0 0 0 0.25 0"/>
<feBlend mode="normal" in2="BackgroundImageFix" result="effect1_dropShadow_6_10"/>
<feBlend mode="normal" in="SourceGraphic" in2="effect1_dropShadow_6_10" result="shape"/>
</filter>
<filter id="filter5_d_6_10" x="199.028" y="23.7374" width="28.4383" height="29.6673" filterUnits="userSpaceOnUse" color-interpolation-filters="sRGB">
<feFlood flood-opacity="0" result="BackgroundImageFix"/>
<feColorMatrix in="SourceAlpha" type="matrix" values="0 0 0 0 0 0 0 0 0 0 0 0 0 0 0 0 0 0 127 0" result="hardAlpha"/>
<feOffset dy="4"/>
<feGaussianBlur stdDeviation="2"/>
<feComposite in2="hardAlpha" operator="out"/>
<feColorMatrix type="matrix" values="0 0 0 0 0 0 0 0 0 0 0 0 0 0 0 0 0 0 0.25 0"/>
<feBlend mode="normal" in2="BackgroundImageFix" result="effect1_dropShadow_6_10"/>
<feBlend mode="normal" in="SourceGraphic" in2="effect1_dropShadow_6_10" result="shape"/>
</filter>
<filter id="filter6_d_6_10" x="56.7353" y="48" width="211.265" height="59.336" filterUnits="userSpaceOnUse" color-interpolation-filters="sRGB">
<feFlood flood-opacity="0" result="BackgroundImageFix"/>
<feColorMatrix in="SourceAlpha" type="matrix" values="0 0 0 0 0 0 0 0 0 0 0 0 0 0 0 0 0 0 127 0" result="hardAlpha"/>
<feOffset dy="4"/>
<feGaussianBlur stdDeviation="1"/>
<feComposite in2="hardAlpha" operator="out"/>
<feColorMatrix type="matrix" values="0 0 0 0 0 0 0 0 0 0 0 0 0 0 0 0 0 0 0.5 0"/>
<feBlend mode="normal" in2="BackgroundImageFix" result="effect1_dropShadow_6_10"/>
<feBlend mode="normal" in="SourceGraphic" in2="effect1_dropShadow_6_10" result="shape"/>
</filter>
<filter id="filter7_d_6_10" x="3.65277" y="27.8172" width="95.9565" height="73.3439" filterUnits="userSpaceOnUse" color-interpolation-filters="sRGB">
<feFlood flood-opacity="0" result="BackgroundImageFix"/>
<feColorMatrix in="SourceAlpha" type="matrix" values="0 0 0 0 0 0 0 0 0 0 0 0 0 0 0 0 0 0 127 0" result="hardAlpha"/>
<feOffset dy="4"/>
<feGaussianBlur stdDeviation="1"/>
<feComposite in2="hardAlpha" operator="out"/>
<feColorMatrix type="matrix" values="0 0 0 0 0 0 0 0 0 0 0 0 0 0 0 0 0 0 0.5 0"/>
<feBlend mode="normal" in2="BackgroundImageFix" result="effect1_dropShadow_6_10"/>
<feBlend mode="normal" in="SourceGraphic" in2="effect1_dropShadow_6_10" result="shape"/>
</filter>
</defs>
</svg>
